<svg xmlns="http://www.w3.org/2000/svg" xmlns:xlink="http://www.w3.org/1999/xlink" id="body_32" preserveAspectRatio="xMinYMin meet" viewBox="0 0 960 720"><defs><clipPath id="1"><path d="M0 540L0 0L0 0L720 0L720 0L720 540L720 540L0 540z" /></clipPath><clipPath id="2"><path d="M0 539.9999L719.9999 539.9999L719.9999 539.9999L719.9999 6.103516E-05L719.9999 6.103516E-05L0 6.103516E-05z" /></clipPath><clipPath id="3"><path d="M0 540L719.9999 540L719.9999 540L719.9999 0L719.9999 0L0 0z" /></clipPath><clipPath id="4"><path d="M36.87503 150L683.1249 150L683.1249 150L683.1249 144.25L683.1249 144.25L36.87503 144.25z" /></clipPath><linearGradient transform="matrix(1 0 0 1 0 0)" id="680" x1="359.9488" y1="398.6245" x2="359.9488398.6245" y2="359.948811.49908"><stop stop-color="#117B17" offset="0%" /><stop stop-color="#E3EED7" offset="100%" /></linearGradient><clipPath id="5"><path d="M0 540L719.9999 540L719.9999 540L719.9999 0L719.9999 0L0 0z" /></clipPath></defs><g transform="matrix(1.333333 0 0 1.333333 0 0)"><g><g clip-path="url(#1)"><g clip-path="url(#2)"><g transform="matrix(0.9 0 0 0.9 0 0)"><g transform="matrix(1 0 0 1 0 0)"><image x="0" y="0" xlink:href="img_01.png" width="800" height="600" /></g></g></g><g clip-path="url(#3)"><g transform="matrix(0.3272727 0 0 0.3272728 31.41818 139.7455)"><g transform="matrix(1 0 0 1 0 0)"><image x="0" y="0" xlink:href="img_03.png" width="2008" height="51" /></g></g></g><g clip-path="url(#4)"><g><path transform="matrix(1 0 0 -1 0 540)" d="M0 390L720 384L720 384L720 395L720 395L0 402" stroke="none" fill="url(#680)" /><path transform="matrix(1 0 0 -1 0 540)" d="M0 391.3275L720 384.9225L720 384.9225L720 0L720 0L0 0" stroke="none" fill="#117B17" fill-rule="evenodd" /><path transform="matrix(1 0 0 -1 0 540)" d="M0 400.8275L720 394.4224L720 394.4224L720 540L720 540L0 540" stroke="none" fill="#E3EED7" fill-rule="evenodd" /></g></g><g clip-path="url(#5)"><g transform="matrix(0.3272727 0 0 0.3272727 57.92727 156.4364)"><g transform="matrix(1 0 0 1 0 0)"><image x="0" y="0" xlink:href="img_268.png" width="1810" height="150" /></g></g><g transform="matrix(0.3272726 0 0 0.3272727 85.0909 194.4)"><g transform="matrix(1 0 0 1 0 0)"><image x="0" y="0" xlink:href="img_269.png" width="581" height="151" /></g></g><path transform="matrix(1 0 0 -1 0 540)" d="M71.99999 198C 71.99999 231.1371 89.46088 258 111 258C 132.5391 258 150 231.1371 150 198C 150 164.8629 132.5391 138 111 138C 89.46088 138 71.99999 164.8629 71.99999 198z" stroke="none" fill="#38D4D6" fill-rule="evenodd" /><path transform="matrix(1 0 0 -1 0 540)" d="M71.99999 198C 71.99999 231.1371 89.46088 258 111 258C 132.5391 258 150 231.1371 150 198C 150 164.8629 132.5391 138 111 138C 89.46088 138 71.99999 164.8629 71.99999 198z" stroke="#000000" stroke-width="0.7499998" fill="none" /><path transform="matrix(1 0 0 -1 0 540)" d="M174 189C 174 223.7939 191.4609 252 213 252C 234.5391 252 252 223.7939 252 189C 252 154.2061 234.5391 126 213 126C 191.4609 126 174 154.2061 174 189z" stroke="none" fill="#38D4D6" fill-rule="evenodd" /><path transform="matrix(1 0 0 -1 0 540)" d="M174 189C 174 223.7939 191.4609 252 213 252C 234.5391 252 252 223.7939 252 189C 252 154.2061 234.5391 126 213 126C 191.4609 126 174 154.2061 174 189z" stroke="#000000" stroke-width="0.7499998" fill="none" /><path transform="matrix(1 0 0 -1 0 540)" d="M102 210L110.0625 216.5L110.0625 216.5L118.0625 222.875L118.0625 222.875L125.9375 228.8125L125.9375 228.8125L133.6875 234.1875L133.6875 234.1875L141.1875 238.8125L141.1875 238.8125L148.5 242.4375L148.5 242.4375L155.4375 244.875L155.4375 244.875L158.75 245.625L158.75 245.625L162 246L162 246L165.125 246L165.125 246L168.1875 245.625L168.1875 245.625L174 243.9375L174 243.9375L179.4375 241.0625L179.4375 241.0625L184.6875 237.1875L184.6875 237.1875L189.6875 232.5625L189.6875 232.5625L194.5625 227.375L194.5625 227.375L199.3125 221.75L199.3125 221.75L202.7363 217.5502" stroke="#000000" stroke-width="0.9999998" fill="none" /><path transform="matrix(1 0 0 -1 0 540)" d="M200.2088 220.6505L201.5568 226.9101L201.5568 226.9101L204 216L204 216L193.806 220.5915z" stroke="none" fill="#000000" fill-rule="evenodd" /><path transform="matrix(1 0 0 -1 0 540)" d="M114 257L130.25 270.125L130.25 270.125L138.3125 276.25L138.3125 276.25L146.1875 281.8125L146.1875 281.8125L153.8125 286.5625L153.8125 286.5625L161.0625 290.125L161.0625 290.125L164.5 291.4375L164.5 291.4375L167.8125 292.375L167.8125 292.375L171 292.9375L171 292.9375L174 293L174 293L176.875 292.5L176.875 292.5L179.625 291.375L179.625 291.375L182.3125 289.6875L182.3125 289.6875L184.875 287.5L184.875 287.5L187.3125 284.875L187.3125 284.875L189.6875 282L189.6875 282L194.125 275.4375L194.125 275.4375L198.125 268.625L198.125 268.625L201.75 262L201.75 262L203.375 259L203.375 259L204.9375 256.3125L204.9375 256.3125L206.375 254L206.375 254L206.5672 253.7378" stroke="#000000" stroke-width="0.9999998" fill="none" /><path transform="matrix(1 0 0 -1 0 540)" d="M204.2018 256.9634L205.8683 263.1458L205.8683 263.1458L207.75 252.125L207.75 252.125L197.8043 257.2322z" stroke="none" fill="#000000" fill-rule="evenodd" /><path transform="matrix(1 0 0 -1 0 540)" d="M293.9999 252L382.1026 222.6325" stroke="#000000" stroke-width="0.7499998" fill="none" /><path transform="matrix(1 0 0 -1 0 540)" d="M378.3078 223.8974L376.0942 229.9057L376.0942 229.9057L383.9999 222L383.9999 222L372.932 220.4189z" stroke="none" fill="#000000" fill-rule="evenodd" /><path transform="matrix(1 0 0 -1 0 540)" d="M293.9999 144L382.0175 155.7357" stroke="#000000" stroke-width="0.7499998" fill="none" /><path transform="matrix(1 0 0 -1 0 540)" d="M378.0526 155.207L374.7485 149.7222L374.7485 149.7222L383.9999 156L383.9999 156L373.4268 159.6345z" stroke="none" fill="#000000" fill-rule="evenodd" /><path transform="matrix(1 0 0 -1 0 540)" d="M293.9999 228L382.0674 251.4847" stroke="#000000" stroke-width="0.7499998" fill="none" /><path transform="matrix(1 0 0 -1 0 540)" d="M378.2025 250.454L375.6259 244.5922L375.6259 244.5922L383.9999 252L383.9999 252L373.0493 254.2545z" stroke="none" fill="#000000" fill-rule="evenodd" /><path transform="matrix(1 0 0 -1 0 540)" d="M293.9999 204L382.2352 156.9412" stroke="#000000" stroke-width="0.7499998" fill="none" /><path transform="matrix(1 0 0 -1 0 540)" d="M378.7058 158.8235L377.5294 165.1176L377.5294 165.1176L383.9999 156L383.9999 156L372.8235 156.2941z" stroke="none" fill="#000000" fill-rule="evenodd" /><path transform="matrix(1 0 0 -1 0 540)" d="M293.9999 174L382.0387 191.6078" stroke="#000000" stroke-width="0.7499998" fill="none" /><path transform="matrix(1 0 0 -1 0 540)" d="M378.1164 190.8233L375.1747 185.1359L375.1747 185.1359L383.9999 192L383.9999 192L373.2135 194.9417z" stroke="none" fill="#000000" fill-rule="evenodd" /><path transform="matrix(1 0 0 -1 0 540)" d="M443.9999 150L611.9999 149.9999" stroke="#000000" stroke-width="0.7499998" fill="none" /><path transform="matrix(1 0 0 -1 0 540)" d="M443.9999 150L444 299.9999" stroke="#000000" stroke-width="0.7499998" fill="none" /><path transform="matrix(1 0 0 -1 0 540)" d="M443.9999 150C 456.4999 154.5 468.9999 159 479.9999 174C 490.9999 189 496.9999 225 509.9999 240C 522.9999 255 541.9999 266 557.9999 264C 573.9999 262 589.9999 245 605.9999 228" stroke="#000000" stroke-width="0.7499998" fill="none" /></g></g></g></g></svg>