<svg xmlns="http://www.w3.org/2000/svg" xmlns:xlink="http://www.w3.org/1999/xlink" id="body_12" preserveAspectRatio="xMinYMin meet" viewBox="0 0 960 720"><defs><clipPath id="1"><path d="M0 540L0 0L0 0L720 0L720 0L720 540L720 540L0 540z" /></clipPath><clipPath id="2"><path d="M0 539.9999L719.9999 539.9999L719.9999 539.9999L719.9999 6.103516E-05L719.9999 6.103516E-05L0 6.103516E-05z" /></clipPath><clipPath id="3"><path d="M0 540L719.9999 540L719.9999 540L719.9999 0L719.9999 0L0 0z" /></clipPath><clipPath id="4"><path d="M36.87503 150L683.1249 150L683.1249 150L683.1249 144.25L683.1249 144.25L36.87503 144.25z" /></clipPath><linearGradient transform="matrix(1 0 0 1 0 0)" id="680" x1="359.9488" y1="398.6245" x2="359.9488398.6245" y2="359.948811.49908"><stop stop-color="#127B18" offset="0%" /><stop stop-color="#E3EED8" offset="100%" /></linearGradient><clipPath id="5"><path d="M0 540L719.9999 540L719.9999 540L719.9999 0L719.9999 0L0 0z" /></clipPath><clipPath id="6"><path d="M479.9999 162C 481.7777 162 483.5555 162 485.3333 162C 488.8889 162 491.2961 162.1907 492.5549 162.5722C 493.8137 162.9536 494.8397 163.9281 495.6331 165.4958C 496.4264 167.0634 496.8231 169.564 496.8231 172.9976C 496.8231 176.1323 496.5428 178.2388 495.9821 179.317C 495.4214 180.3951 494.3178 181.042 492.6711 181.2575C 494.1624 181.7725 495.1646 182.4618 495.6777 183.3255C 496.1909 184.1892 496.51 184.9823 496.6353 185.7048C 496.7605 186.4273 496.8231 188.4164 496.8231 191.6722C 496.8231 195.2186 496.8231 198.765 496.8231 202.3115C 494.4896 202.3115 492.1561 202.3115 489.8226 202.3115C 489.8226 197.8419 489.8226 193.3723 489.8226 188.9027C 489.8226 186.7432 489.7013 185.4058 489.4586 184.8906C 489.216 184.3754 488.5799 184.1178 487.5502 184.1178C 487.5502 190.1824 487.5502 196.2469 487.5502 202.3115C 485.0334 202.3115 482.5167 202.3115 479.9999 202.3115C 479.9999 188.8743 479.9999 175.4372 479.9999 162zM556.3945 162C 558.8746 162 561.3547 162 563.8349 162C 563.8349 163.7498 563.8349 165.4995 563.8349 167.2492C 561.3547 167.2492 558.8746 167.2492 556.3945 167.2492C 556.3945 165.4995 556.3945 163.7498 556.3945 162zM607.5263 162C 609.9331 162 612.3399 162 614.7467 162C 614.7467 175.4372 614.7467 188.8743 614.7467 202.3115C 612.3399 202.3115 609.9331 202.3115 607.5263 202.3115C 607.5263 201.5112 607.5263 200.7109 607.5263 199.9106C 606.8326 200.9145 606.1029 201.6675 605.3372 202.1697C 604.5715 202.6719 603.7701 202.923 602.9328 202.923C 601.8084 202.923 600.8336 202.512 600.0081 201.69C 599.1827 200.8679 598.6533 199.9173 598.42 198.838C 598.1868 197.7588 598.0701 195.9987 598.0701 193.5578C 598.0701 188.4021 598.0701 183.2464 598.0701 178.0907C 598.0701 175.5505 598.1868 173.749 598.42 172.6862C 598.6533 171.6235 599.1886 170.6894 600.0259 169.8841C 600.8632 169.0788 601.8621 168.6761 603.0227 168.6761C 603.9199 168.6761 604.7423 168.9016 605.4899 169.3526C 606.2374 169.8036 606.9162 170.48 607.5263 171.3819C 607.5263 168.2546 607.5263 165.1273 607.5263 162zM624.0123 162C 628.264 162 632.5156 162 636.7672 162C 636.7672 164.6841 636.7672 167.3681 636.7672 170.0521C 635.0323 170.0521 633.2975 170.0521 631.5626 170.0521C 631.5626 172.6172 631.5626 175.1824 631.5626 177.7475C 633.102 177.7475 634.6414 177.7475 636.1808 177.7475C 636.1808 180.2956 636.1808 182.8438 636.1808 185.3919C 634.6414 185.3919 633.102 185.3919 631.5626 185.3919C 631.5626 191.0317 631.5626 196.6716 631.5626 202.3115C 629.0458 202.3115 626.5291 202.3115 624.0123 202.3115C 624.0123 188.8743 624.0123 175.4372 624.0123 162zM507.306 168.6761C 509.3359 168.6761 511.0107 169.2108 512.3301 170.2803C 513.6496 171.3497 514.575 172.7673 515.1062 174.5333C 515.6375 176.2992 515.9031 178.7824 515.9031 181.9829C 515.9031 183.442 515.9031 184.9011 515.9031 186.3602C 512.7755 186.3602 509.6479 186.3602 506.5202 186.3602C 506.5202 188.7466 506.5202 191.1331 506.5202 193.5196C 506.5202 195.0166 506.5985 195.9814 506.755 196.4137C 506.9116 196.8461 507.2126 197.0623 507.6582 197.0623C 508.2122 197.0623 508.5825 196.7752 508.7692 196.2011C 508.9559 195.627 509.0492 194.5163 509.0492 192.869C 509.0492 191.4129 509.0492 189.9568 509.0492 188.5006C 511.3339 188.5006 513.6185 188.5006 515.9031 188.5006C 515.9031 189.3157 515.9031 190.1309 515.9031 190.946C 515.9031 192.9919 515.8105 194.5638 515.6254 195.6617C 515.4402 196.7595 515.0073 197.9323 514.3268 199.1801C 513.6462 200.4278 512.7836 201.3636 511.7388 201.9874C 510.6941 202.6111 509.3837 202.923 507.8076 202.923C 506.279 202.923 504.9296 202.6158 503.7596 202.0013C 502.5896 201.3868 501.6792 200.5441 501.0285 199.4731C 500.3777 198.4021 499.9269 197.2232 499.6761 195.9363C 499.4253 194.6496 499.2998 192.7775 499.2998 190.3201C 499.2998 187.1071 499.2998 183.894 499.2998 180.681C 499.2998 177.7921 499.5804 175.5132 500.1417 173.8445C 500.7029 172.1757 501.6223 170.8971 502.9 170.0087C 504.1777 169.1203 505.6463 168.6761 507.306 168.6761zM522.8107 168.6761C 523.7163 168.6761 524.5505 168.9603 525.3134 169.5286C 526.0762 170.0969 526.7733 170.9578 527.4048 172.1113C 527.4466 171.1701 527.4884 170.2289 527.5302 169.2877C 529.9004 169.2877 532.2705 169.2877 534.6407 169.2877C 534.6407 181.8585 534.6407 194.4292 534.6407 207C 532.2339 207 529.827 207 527.4202 207C 527.4202 204.548 527.4202 202.0959 527.4202 199.6439C 526.7158 201.0788 526.0682 201.9841 525.4774 202.3596C 524.8866 202.7352 524.1554 202.923 523.2838 202.923C 522.0185 202.923 520.9711 202.5079 520.1414 201.6776C 519.3118 200.8474 518.7537 199.7722 518.4672 198.4522C 518.1807 197.1323 518.0374 195.1106 518.0374 192.3873C 518.0374 187.5305 518.0374 182.6736 518.0374 177.8168C 518.0374 175.5755 518.1447 173.9027 518.3593 172.7985C 518.5738 171.6943 519.0892 170.7312 519.9055 169.9092C 520.7217 169.0872 521.6901 168.6761 522.8107 168.6761zM577.9431 168.6761C 577.9431 172.5493 577.9431 176.4225 577.9431 180.2956C 576.6152 180.2956 575.6403 180.5447 575.0184 181.0429C 574.3965 181.5411 574.0137 182.2343 573.8702 183.1224C 573.7266 184.0106 573.6548 186.0568 573.6548 189.261C 573.6548 193.6112 573.6548 197.9613 573.6548 202.3115C 571.248 202.3115 568.8412 202.3115 566.4344 202.3115C 566.4344 191.3035 566.4344 180.2956 566.4344 169.2877C 568.829 169.2877 571.2236 169.2877 573.6182 169.2877C 573.5327 170.7372 573.4471 172.1867 573.3616 173.6362C 574.4158 170.5132 575.9429 168.8598 577.9431 168.6761zM587.3387 168.6761C 589.3687 168.6761 591.0435 169.2108 592.3629 170.2803C 593.6824 171.3497 594.6077 172.7673 595.139 174.5333C 595.6702 176.2992 595.9359 178.7824 595.9359 181.9829C 595.9359 183.442 595.9359 184.9011 595.9359 186.3602C 592.8082 186.3602 589.6806 186.3602 586.553 186.3602C 586.553 188.7466 586.553 191.1331 586.553 193.5196C 586.553 195.0166 586.6313 195.9814 586.7878 196.4137C 586.9443 196.8461 587.2454 197.0623 587.6909 197.0623C 588.2449 197.0623 588.6152 196.7752 588.8019 196.2011C 588.9886 195.627 589.082 194.5163 589.082 192.869C 589.082 191.4129 589.082 189.9568 589.082 188.5006C 591.3666 188.5006 593.6512 188.5006 595.9359 188.5006C 595.9359 189.3157 595.9359 190.1309 595.9359 190.946C 595.9359 192.9919 595.8433 194.5638 595.6581 195.6617C 595.473 196.7595 595.0401 197.9323 594.3596 199.1801C 593.679 200.4278 592.8164 201.3636 591.7716 201.9874C 590.7269 202.6111 589.4164 202.923 587.8404 202.923C 586.3117 202.923 584.9624 202.6158 583.7924 202.0013C 582.6224 201.3868 581.712 200.5441 581.0612 199.4731C 580.4105 198.4021 579.9597 197.2232 579.7089 195.9363C 579.458 194.6496 579.3326 192.7775 579.3326 190.3201C 579.3326 187.1071 579.3326 183.894 579.3326 180.681C 579.3326 177.7921 579.6132 175.5132 580.1744 173.8445C 580.7357 172.1757 581.6551 170.8971 582.9328 170.0087C 584.2104 169.1203 585.6791 168.6761 587.3387 168.6761zM646.2089 168.6761C 647.8307 168.6761 649.2231 169.0125 650.3861 169.685C 651.549 170.3576 652.4466 171.2336 653.0789 172.3128C 653.7111 173.392 654.1434 174.5045 654.376 175.6501C 654.6085 176.7957 654.7247 178.539 654.7247 180.8801C 654.7247 183.5785 654.7247 186.2768 654.7247 188.9752C 654.7247 191.9475 654.6174 194.1268 654.4026 195.5131C 654.1879 196.8995 653.7286 198.1946 653.025 199.3986C 652.3214 200.6026 651.418 201.491 650.3148 202.0638C 649.2116 202.6366 647.9443 202.923 646.513 202.923C 644.9148 202.923 643.5611 202.6782 642.4518 202.1884C 641.3425 201.6987 640.4808 200.9597 639.8667 199.9716C 639.2526 198.9834 638.8143 197.7877 638.5518 196.3847C 638.2894 194.9816 638.1581 192.877 638.1581 190.0709C 638.1581 187.2483 638.1581 184.4257 638.1581 181.6031C 638.1581 178.531 638.3966 176.1315 638.8737 174.4046C 639.3507 172.6778 640.2095 171.2913 641.4499 170.2452C 642.6903 169.1992 644.2767 168.6761 646.2089 168.6761zM668.6243 168.6761C 668.6243 172.5493 668.6243 176.4225 668.6243 180.2956C 667.2964 180.2956 666.3215 180.5447 665.6995 181.0429C 665.0776 181.5411 664.6949 182.2343 664.5513 183.1224C 664.4078 184.0106 664.336 186.0568 664.336 189.261C 664.336 193.6112 664.336 197.9613 664.336 202.3115C 661.9292 202.3115 659.5223 202.3115 657.1155 202.3115C 657.1155 191.3035 657.1155 180.2956 657.1155 169.2877C 659.5101 169.2877 661.9047 169.2877 664.2993 169.2877C 664.2138 170.7372 664.1283 172.1867 664.0427 173.6362C 665.0969 170.5132 666.624 168.8598 668.6243 168.6761zM681.917 168.6761C 683.8469 168.6761 685.3659 169.9292 686.4739 172.4354C 687.0817 171.1821 687.7668 170.2422 688.5292 169.6158C 689.2916 168.9893 690.1377 168.6761 691.0674 168.6761C 692.2944 168.6761 693.3101 169.0911 694.1143 169.9211C 694.9186 170.7511 695.4339 171.7677 695.6603 172.9709C 695.8867 174.1741 695.9999 176.1284 695.9999 178.8336C 695.9999 186.6596 695.9999 194.4855 695.9999 202.3115C 693.6664 202.3115 691.3329 202.3115 688.9994 202.3115C 688.9994 195.1356 688.9994 187.9597 688.9994 180.7838C 688.9994 177.9633 688.9307 176.217 688.7935 175.545C 688.6562 174.8729 688.3368 174.5368 687.8351 174.5368C 687.3216 174.5368 686.9902 174.8686 686.8409 175.5322C 686.6917 176.1958 686.617 177.9463 686.617 180.7838C 686.617 187.9597 686.617 195.1356 686.617 202.3115C 684.2835 202.3115 681.95 202.3115 679.6165 202.3115C 679.6165 195.3179 679.6165 188.3243 679.6165 181.3308C 679.6165 178.0957 679.5598 176.1546 679.4464 175.5075C 679.333 174.8604 679.0196 174.5368 678.5061 174.5368C 678.1838 174.5368 677.9094 174.7068 677.6826 175.0468C 677.4557 175.3869 677.3304 175.8016 677.3066 176.2911C 677.2827 176.7805 677.2708 177.8218 677.2708 179.4149C 677.2708 187.0471 677.2708 194.6793 677.2708 202.3115C 674.9373 202.3115 672.6038 202.3115 670.2703 202.3115C 670.2703 191.3035 670.2703 180.2956 670.2703 169.2877C 672.6404 169.2877 675.0106 169.2877 677.3807 169.2877C 677.3441 170.3369 677.3074 171.3862 677.2708 172.4354C 677.8309 171.1821 678.498 170.2422 679.2723 169.6158C 680.0466 168.9893 680.9282 168.6761 681.917 168.6761zM487.5502 168.88C 487.5502 171.8698 487.5502 174.8596 487.5502 177.8494C 488.3905 177.8494 488.9793 177.6875 489.3167 177.3637C 489.654 177.0399 489.8226 175.9893 489.8226 174.2119C 489.8226 173.4727 489.8226 172.7335 489.8226 171.9943C 489.8226 170.7154 489.6599 169.8767 489.3344 169.478C 489.0089 169.0793 488.4142 168.88 487.5502 168.88zM537.1354 169.2877C 539.5422 169.2877 541.949 169.2877 544.3558 169.2877C 544.3558 176.7789 544.3558 184.2702 544.3558 191.7614C 544.3558 194.3329 544.4124 195.8593 544.5256 196.3405C 544.6389 196.8217 544.9457 197.0623 545.4462 197.0623C 545.9827 197.0623 546.3015 196.8135 546.4029 196.3158C 546.5043 195.8181 546.5549 194.2169 546.5549 191.5122C 546.5549 184.104 546.5549 176.6958 546.5549 169.2877C 548.9617 169.2877 551.3685 169.2877 553.7754 169.2877C 553.7754 180.2956 553.7754 191.3035 553.7754 202.3115C 551.327 202.3115 548.8785 202.3115 546.4301 202.3115C 546.4717 201.3952 546.5133 200.4789 546.5549 199.5627C 546.0544 200.6828 545.4377 201.5229 544.7049 202.0829C 543.972 202.643 543.129 202.923 542.1757 202.923C 541.0914 202.923 540.1918 202.6574 539.4769 202.1263C 538.762 201.5952 538.2347 200.8898 537.8951 200.0102C 537.5555 199.1306 537.344 198.2135 537.2606 197.259C 537.1771 196.3045 537.1354 194.4083 537.1354 191.5703C 537.1354 184.1428 537.1354 176.7152 537.1354 169.2877zM556.3945 169.2877C 558.8746 169.2877 561.3547 169.2877 563.8349 169.2877C 563.8349 180.2956 563.8349 191.3035 563.8349 202.3115C 561.3547 202.3115 558.8746 202.3115 556.3945 202.3115C 556.3945 191.3035 556.3945 180.2956 556.3945 169.2877zM507.6565 174.5368C 507.1433 174.5368 506.8257 174.7484 506.7035 175.1715C 506.5813 175.5946 506.5202 176.7357 506.5202 178.5947C 506.5202 179.3995 506.5202 180.2043 506.5202 181.0091C 507.2411 181.0091 507.9619 181.0091 508.6827 181.0091C 508.6827 180.2043 508.6827 179.3995 508.6827 178.5947C 508.6827 176.8854 508.6155 175.7817 508.4811 175.2838C 508.3467 174.7858 508.0718 174.5368 507.6565 174.5368zM526.3029 174.5368C 525.8944 174.5368 525.6181 174.7609 525.474 175.2089C 525.3298 175.657 525.2578 176.6775 525.2578 178.2706C 525.2578 183.174 525.2578 188.0772 525.2578 192.9805C 525.2578 194.7557 525.3298 195.8798 525.474 196.3528C 525.6181 196.8258 525.9124 197.0623 526.3568 197.0623C 526.7775 197.0623 527.0599 196.8176 527.204 196.3281C 527.3482 195.8387 527.4202 194.7724 527.4202 193.1294C 527.4202 188.1765 527.4202 183.2236 527.4202 178.2706C 527.4202 176.8102 527.3391 175.8228 527.1769 175.3084C 527.0146 174.794 526.7233 174.5368 526.3029 174.5368zM587.6892 174.5368C 587.1761 174.5368 586.8585 174.7484 586.7363 175.1715C 586.6141 175.5946 586.553 176.7357 586.553 178.5947C 586.553 179.3995 586.553 180.2043 586.553 181.0091C 587.2738 181.0091 587.9946 181.0091 588.7155 181.0091C 588.7155 180.2043 588.7155 179.3995 588.7155 178.5947C 588.7155 176.8854 588.6483 175.7817 588.5139 175.2838C 588.3795 174.7858 588.1046 174.5368 587.6892 174.5368zM606.3993 174.5368C 605.9629 174.5368 605.669 174.7236 605.5176 175.097C 605.3663 175.4705 605.2905 176.3044 605.2905 177.5986C 605.2905 182.9913 605.2905 188.3841 605.2905 193.7768C 605.2905 195.1209 605.3633 196.0046 605.5087 196.4277C 605.6542 196.8508 605.9329 197.0623 606.3448 197.0623C 606.8175 197.0623 607.1326 196.8258 607.2901 196.3528C 607.4476 195.8798 607.5263 194.7225 607.5263 192.881C 607.5263 187.7869 607.5263 182.6927 607.5263 177.5986C 607.5263 176.3871 607.4506 175.574 607.2993 175.1591C 607.1479 174.7443 606.8479 174.5368 606.3993 174.5368zM646.4592 174.5368C 646.027 174.5368 645.7388 174.7567 645.5947 175.1966C 645.4506 175.6364 645.3785 176.7025 645.3785 178.3949C 645.3785 183.3645 645.3785 188.3342 645.3785 193.3038C 645.3785 194.8635 645.4506 195.8798 645.5947 196.3528C 645.7388 196.8258 646.0211 197.0623 646.4414 197.0623C 646.8736 197.0623 647.1588 196.8466 647.297 196.4153C 647.4352 195.984 647.5043 195.0546 647.5043 193.6271C 647.5043 188.5497 647.5043 183.4723 647.5043 178.3949C 647.5043 176.7025 647.4383 175.6364 647.3062 175.1966C 647.1741 174.7567 646.8917 174.5368 646.4592 174.5368z" /></clipPath><clipPath id="7"><path d="M0 540L719.9999 540L719.9999 540L719.9999 0L719.9999 0L0 0z" /></clipPath><clipPath id="8"><path d="M0 540L719.9999 540L719.9999 540L719.9999 0L719.9999 0L0 0z" /></clipPath></defs><g transform="matrix(1.333333 0 0 1.333333 0 0)"><g><g clip-path="url(#1)"><g clip-path="url(#2)"><g transform="matrix(0.9 0 0 0.9 0 0)"><g transform="matrix(1 0 0 1 0 0)"><image x="0" y="0" xlink:href="img_01.png" width="800" height="600" /></g></g></g><g clip-path="url(#3)"><g transform="matrix(0.3272727 0 0 0.3272728 31.41818 139.7455)"><g transform="matrix(1 0 0 1 0 0)"><image x="0" y="0" xlink:href="img_03.png" width="2008" height="51" /></g></g></g><g clip-path="url(#4)"><g><path transform="matrix(1 0 0 -1 0 540)" d="M0 390L720 384L720 384L720 395L720 395L0 402" stroke="none" fill="url(#680)" /><path transform="matrix(1 0 0 -1 0 540)" d="M0 391.3275L720 384.9225L720 384.9225L720 0L720 0L0 0" stroke="none" fill="#127B18" fill-rule="evenodd" /><path transform="matrix(1 0 0 -1 0 540)" d="M0 400.8275L720 394.4224L720 394.4224L720 540L720 540L0 540" stroke="none" fill="#E3EED8" fill-rule="evenodd" /></g></g><g clip-path="url(#5)"><g transform="matrix(0.3272727 0 0 0.3272727 57.92727 156.4364)"><g transform="matrix(1 0 0 1 0 0)"><image x="0" y="0" xlink:href="img_110.png" width="1202" height="157" /></g></g><g transform="matrix(0.3272727 0 0 0.3272727 57.92727 194.4)"><g transform="matrix(1 0 0 1 0 0)"><image x="0" y="0" xlink:href="img_111.png" width="1813" height="178" /></g></g><g transform="matrix(0.3272727 0 0 0.3272727 57.92727 194.4)"><g transform="matrix(1 0 0 1 0 0)"><image x="0" y="0" xlink:href="img_112.png" width="1813" height="178" /></g></g><g transform="matrix(0.3272727 0 0 0.3272727 57.92727 194.4)"><g transform="matrix(1 0 0 1 0 0)"><image x="0" y="0" xlink:href="img_113.png" width="1813" height="178" /></g></g><g transform="matrix(0.3272727 0 0 0.3272727 57.92727 194.4)"><g transform="matrix(1 0 0 1 0 0)"><image x="0" y="0" xlink:href="img_114.png" width="1813" height="178" /></g></g><g transform="matrix(0.3272727 0 0 0.3272727 57.92727 194.4)"><g transform="matrix(1 0 0 1 0 0)"><image x="0" y="0" xlink:href="img_115.png" width="1813" height="178" /></g></g><g transform="matrix(0.3272727 0 0 0.3272727 57.92727 194.4)"><g transform="matrix(1 0 0 1 0 0)"><image x="0" y="0" xlink:href="img_116.png" width="1813" height="178" /></g></g><g transform="matrix(0.3272727 0 0 0.3272727 57.92727 194.4)"><g transform="matrix(1 0 0 1 0 0)"><image x="0" y="0" xlink:href="img_117.png" width="1813" height="178" /></g></g><g transform="matrix(0.3272727 0 0 0.3272727 57.92727 194.4)"><g transform="matrix(1 0 0 1 0 0)"><image x="0" y="0" xlink:href="img_118.png" width="1813" height="178" /></g></g><g transform="matrix(0.3272727 0 0 0.3272727 57.92727 194.4)"><g transform="matrix(1 0 0 1 0 0)"><image x="0" y="0" xlink:href="img_119.png" width="1813" height="178" /></g></g><g transform="matrix(0.3272727 0 0 0.3272727 57.92727 194.4)"><g transform="matrix(1 0 0 1 0 0)"><image x="0" y="0" xlink:href="img_120.png" width="1813" height="178" /></g></g><path transform="matrix(1 0 0 -1 0 540)" d="M95.99999 204C 95.99999 237.1371 143.0101 264 201 264C 258.9899 264 306 237.1371 306 204C 306 170.8629 258.9899 144 201 144C 143.0101 144 95.99999 170.8629 95.99999 204z" stroke="none" fill="#008F00" fill-rule="evenodd" fill-opacity="0.5019608" /><path transform="matrix(1 0 0 -1 0 540)" d="M95.99999 204C 95.99999 237.1371 143.0101 264 201 264C 258.9899 264 305.9999 237.1371 305.9999 204C 305.9999 170.8629 258.9899 144 201 144C 143.0101 144 95.99999 170.8629 95.99999 204z" stroke="#008F00" stroke-width="0.7499998" fill="none" /><path transform="matrix(1 0 0 -1 0 540)" d="M156 165C 156 196.4802 204.3532 222 263.9999 222C 323.6467 222 371.9999 196.4802 371.9999 165C 371.9999 133.5198 323.6467 108 263.9999 108C 204.3532 108 156 133.5198 156 165z" stroke="none" fill="#008F00" fill-rule="evenodd" fill-opacity="0.5019608" /><path transform="matrix(1 0 0 -1 0 540)" d="M156 165C 156 196.4802 204.3532 222 264 222C 323.6467 222 371.9999 196.4802 371.9999 165C 371.9999 133.5198 323.6467 108 264 108C 204.3532 108 156 133.5198 156 165z" stroke="#008F00" stroke-width="0.7499998" fill="none" /><path transform="matrix(1 0 0 -1 0 540)" d="M521.9999 309C 521.9999 323.9117 552.8922 336 590.9999 336C 629.1074 336 659.9999 323.9117 659.9999 309C 659.9999 294.0883 629.1074 282 590.9999 282C 552.8922 282 521.9999 294.0883 521.9999 309z" stroke="#FF2600" stroke-width="2.999999" fill="none" /><g transform="matrix(0.3272728 0 0 0.3272727 476.5091 158.4)"><g transform="matrix(1 0 0 1 0 0)"><image x="0" y="0" xlink:href="img_121.png" width="694" height="172" /></g></g></g><g clip-path="url(#6)"><g clip-path="url(#7)"><g transform="matrix(1 0 0 1 479.9999 162)"><g transform="matrix(1 0 0 1 0 0)"><image x="0" y="0" xlink:href="img_122.png" width="216" height="45" /></g></g></g></g><g clip-path="url(#8)"><path transform="matrix(1 0 0 -1 0 540)" d="M95.99999 204C 95.99999 237.1371 143.0101 264 201 264C 258.9899 264 305.9999 237.1371 305.9999 204C 305.9999 170.8629 258.9899 144 201 144C 143.0101 144 95.99999 170.8629 95.99999 204z" stroke="#0433FF" stroke-width="2.999999" fill="none" /><path transform="matrix(1 0 0 -1 0 540)" d="M156 165C 156 196.4802 204.3532 222 264 222C 323.6467 222 371.9999 196.4802 371.9999 165C 371.9999 133.5198 323.6467 108 264 108C 204.3532 108 156 133.5198 156 165z" stroke="#FF2600" stroke-width="2.999999" fill="none" /><path transform="matrix(1 0 0 -1 0 540)" d="M153.1507 234C 155.2603 234 156.9014 233.6714 158.074 233.0142C 159.2466 232.357 160.1689 231.3477 160.8411 229.9863C 161.5132 228.6249 161.8492 227.099 161.8492 225.4086C 161.8492 223.6113 161.4639 221.8945 160.6931 220.2581C 159.9224 218.6218 158.5209 216.8237 156.4885 214.8637C 155.2809 213.7227 154.4734 212.9241 154.0659 212.4678C 153.6584 212.0114 153.1796 211.4141 152.6297 210.6758C 155.7531 210.6758 158.8766 210.6758 162 210.6758C 162 208.4505 162 206.2253 162 204C 156 204 150 204 144 204C 144.206 206.4274 144.8319 208.7107 145.8776 210.8497C 146.9233 212.9887 148.8844 215.5148 151.761 218.4282C 153.5185 220.2135 154.6443 221.5693 155.1383 222.4957C 155.6324 223.422 155.8794 224.3013 155.8794 225.1337C 155.8794 226.033 155.636 226.8014 155.1494 227.4391C 154.6628 228.0768 154.0507 228.3956 153.3133 228.3956C 152.5463 228.3956 151.9195 228.0652 151.4328 227.4043C 150.9462 226.7435 150.6193 225.5766 150.4522 223.9038C 148.4522 224.1262 146.4522 224.3485 144.4522 224.5709C 144.6878 226.8812 145.1196 228.6844 145.7475 229.9805C 146.3755 231.2767 147.2611 232.2706 148.4041 232.9624C 149.5472 233.6541 151.1294 234 153.1507 234z" stroke="none" fill="#000000" fill-rule="winding" /><path transform="matrix(1 0 0 -1 0 540)" d="M153.1508 234C 155.2604 234 156.9015 233.6714 158.074 233.0142C 159.2466 232.357 160.169 231.3477 160.8411 229.9863C 161.5132 228.6249 161.8492 227.099 161.8492 225.4086C 161.8492 223.6113 161.4639 221.8945 160.6931 220.2582C 159.9224 218.6218 158.5209 216.8237 156.4885 214.8637C 155.2809 213.7227 154.4734 212.9241 154.0659 212.4678C 153.6584 212.0114 153.1796 211.4142 152.6297 210.6758C 155.7531 210.6758 158.8766 210.6758 162 210.6758C 162 208.4506 162 206.2253 162 204C 156 204 150 204 144 204C 144.206 206.4274 144.8319 208.7107 145.8776 210.8497C 146.9233 212.9887 148.8844 215.5149 151.761 218.4282C 153.5185 220.2135 154.6443 221.5693 155.1384 222.4957C 155.6324 223.422 155.8794 224.3013 155.8794 225.1337C 155.8794 226.033 155.6361 226.8015 155.1494 227.4391C 154.6628 228.0768 154.0507 228.3956 153.3133 228.3956C 152.5463 228.3956 151.9195 228.0652 151.4329 227.4043C 150.9462 226.7435 150.6193 225.5767 150.4523 223.9039C 148.4523 224.1262 146.4523 224.3486 144.4523 224.5709C 144.6878 226.8812 145.1196 228.6844 145.7476 229.9805C 146.3755 231.2767 147.2611 232.2706 148.4041 232.9624C 149.5472 233.6541 151.1294 234 153.1508 234z" stroke="#000000" stroke-width="1" fill="none" /><path transform="matrix(1 0 0 -1 0 540)" d="M200.812 192C 203.6524 192 205.706 191.2945 206.9729 189.8836C 208.2397 188.4727 208.8731 186.6991 208.8731 184.5627C 208.8731 183.3102 208.6167 182.1762 208.1038 181.1608C 207.591 180.1453 206.8166 179.2552 205.7808 178.4905C 206.6228 178.2134 207.2665 177.8902 207.7119 177.5207C 208.4349 176.9265 208.9971 176.1444 209.3982 175.1744C 209.7994 174.2044 210 173.0464 210 171.7006C 210 170.011 209.668 168.3908 209.0042 166.8401C 208.3403 165.2895 207.3841 164.0951 206.1355 163.257C 204.887 162.419 203.247 162 201.2156 162C 199.2336 162 197.6704 162.3106 196.5259 162.9318C 195.3814 163.553 194.44 164.4618 193.7018 165.6581C 192.9635 166.8545 192.3962 168.3581 192 170.1689C 194.0203 170.527 196.0406 170.8851 198.0609 171.2432C 198.2985 169.6115 198.6671 168.4805 199.1666 167.8505C 199.6662 167.2204 200.3018 166.9054 201.0737 166.9054C 201.8853 166.9054 202.5607 167.3015 203.0998 168.0937C 203.639 168.886 203.9086 169.9421 203.9086 171.2622C 203.9086 172.6089 203.6494 173.6519 203.131 174.3911C 202.6126 175.1304 201.9092 175.5 201.0209 175.5C 200.5469 175.5 199.8953 175.3416 199.066 175.0249C 199.17 176.9459 199.2741 178.8669 199.3782 180.788C 199.711 180.7221 199.9705 180.6892 200.1567 180.6892C 200.94 180.6892 201.5937 181.024 202.1176 181.6938C 202.6416 182.3636 202.9035 183.1581 202.9035 184.0775C 202.9035 184.9571 202.7067 185.6596 202.313 186.1849C 201.9192 186.7103 201.3778 186.9729 200.6888 186.9729C 199.9803 186.9729 199.4046 186.688 198.9615 186.1181C 198.5185 185.5482 198.2183 184.5494 198.0609 183.1216C 196.1523 183.5735 194.2436 184.0253 192.335 184.4772C 192.81 186.9054 193.7229 188.7662 195.074 190.0597C 196.425 191.3532 198.3377 192 200.812 192z" stroke="none" fill="#000000" fill-rule="winding" /><path transform="matrix(1 0 0 -1 0 540)" d="M200.812 192C 203.6524 192 205.7061 191.2946 206.9729 189.8837C 208.2397 188.4728 208.8731 186.6991 208.8731 184.5627C 208.8731 183.3102 208.6167 182.1762 208.1038 181.1608C 207.591 180.1454 206.8166 179.2553 205.7808 178.4905C 206.6228 178.2135 207.2665 177.8902 207.7119 177.5207C 208.435 176.9265 208.9971 176.1444 209.3982 175.1744C 209.7994 174.2044 210 173.0464 210 171.7006C 210 170.011 209.668 168.3908 209.0042 166.8402C 208.3403 165.2895 207.3841 164.0951 206.1355 163.2571C 204.887 162.419 203.247 162 201.2156 162C 199.2337 162 197.6704 162.3106 196.5259 162.9318C 195.3814 163.553 194.44 164.4618 193.7018 165.6582C 192.9635 166.8545 192.3963 168.3581 192 170.1689C 194.0203 170.527 196.0406 170.8851 198.0609 171.2433C 198.2985 169.6115 198.6671 168.4806 199.1666 167.8505C 199.6662 167.2204 200.3019 166.9054 201.0738 166.9054C 201.8853 166.9054 202.5607 167.3015 203.0999 168.0938C 203.639 168.886 203.9086 169.9422 203.9086 171.2623C 203.9086 172.609 203.6494 173.6519 203.131 174.3912C 202.6126 175.1304 201.9093 175.5 201.0209 175.5C 200.547 175.5 199.8953 175.3416 199.066 175.0249C 199.17 176.946 199.2741 178.867 199.3782 180.788C 199.711 180.7221 199.9705 180.6892 200.1567 180.6892C 200.94 180.6892 201.5937 181.0241 202.1176 181.6938C 202.6416 182.3636 202.9035 183.1582 202.9035 184.0775C 202.9035 184.9571 202.7067 185.6596 202.313 186.185C 201.9193 186.7103 201.3779 186.973 200.6888 186.973C 199.9803 186.973 199.4046 186.688 198.9615 186.1181C 198.5185 185.5482 198.2183 184.5494 198.0609 183.1216C 196.1523 183.5735 194.2437 184.0253 192.335 184.4772C 192.81 186.9054 193.7229 188.7663 195.074 190.0598C 196.425 191.3533 198.3377 192 200.812 192z" stroke="#000000" stroke-width="1" fill="none" /><path transform="matrix(1 0 0 -1 0 540)" d="M254.6924 204C 259.4521 204 264.2117 204 268.9714 204C 268.9714 201.8159 268.9714 199.6319 268.9714 197.4478C 265.748 197.4478 262.5245 197.4478 259.3011 197.4478C 259.1288 195.9746 258.9564 194.5014 258.784 193.0282C 259.453 193.4574 260.1146 193.7794 260.7688 193.994C 261.423 194.2086 262.07 194.3159 262.7097 194.3159C 264.874 194.3159 266.6301 193.4241 267.978 191.6406C 269.326 189.857 270 187.6109 270 184.9023C 270 182.9981 269.6529 181.1676 268.9589 179.4109C 268.2648 177.6542 267.2804 176.3132 266.0057 175.3879C 264.731 174.4626 263.0993 174 261.1106 174C 259.6834 174 258.4603 174.1846 257.4413 174.5537C 256.4224 174.9229 255.5561 175.4734 254.8425 176.2053C 254.1289 176.9372 253.5506 177.7664 253.1075 178.693C 252.6644 179.6195 252.2952 180.7743 252 182.1574C 254.0269 182.4603 256.0537 182.7631 258.0806 183.0659C 258.2284 181.7331 258.5733 180.7199 259.1154 180.0265C 259.6574 179.333 260.3029 178.9863 261.052 178.9863C 261.8899 178.9863 262.5823 179.4189 263.1292 180.284C 263.6761 181.1492 263.9496 182.4401 263.9496 184.1567C 263.9496 185.9141 263.674 187.2018 263.123 188.02C 262.5721 188.8382 261.8388 189.2473 260.9234 189.2473C 260.3429 189.2473 259.782 189.0528 259.2406 188.6639C 258.8372 188.3823 258.3945 187.8728 257.9124 187.1353C 256.2037 187.4706 254.4951 187.8058 252.7865 188.1411C 253.4218 193.4274 254.0571 198.7137 254.6924 204z" stroke="none" fill="#000000" fill-rule="winding" /><path transform="matrix(1 0 0 -1 0 540)" d="M254.6924 204C 259.4521 204 264.2118 204 268.9714 204C 268.9714 201.8159 268.9714 199.6319 268.9714 197.4478C 265.748 197.4478 262.5246 197.4478 259.3011 197.4478C 259.1288 195.9746 258.9564 194.5014 258.784 193.0282C 259.453 193.4574 260.1147 193.7794 260.7689 193.994C 261.4231 194.2086 262.07 194.3159 262.7097 194.3159C 264.874 194.3159 266.6301 193.4241 267.9781 191.6406C 269.326 189.857 270 187.6109 270 184.9023C 270 182.9981 269.653 181.1676 268.9589 179.4109C 268.2648 177.6542 267.2805 176.3132 266.0058 175.3879C 264.7311 174.4626 263.0994 174 261.1106 174C 259.6834 174 258.4603 174.1846 257.4413 174.5537C 256.4224 174.9229 255.5561 175.4734 254.8425 176.2053C 254.1289 176.9372 253.5506 177.7664 253.1075 178.693C 252.6644 179.6195 252.2953 180.7743 252 182.1574C 254.0269 182.4602 256.0538 182.7631 258.0807 183.0659C 258.2285 181.7331 258.5734 180.7199 259.1154 180.0265C 259.6574 179.333 260.3029 178.9863 261.052 178.9863C 261.8899 178.9863 262.5823 179.4188 263.1292 180.284C 263.6761 181.1492 263.9496 182.4401 263.9496 184.1567C 263.9496 185.914 263.6741 187.2018 263.1231 188.02C 262.5721 188.8382 261.8389 189.2473 260.9234 189.2473C 260.343 189.2473 259.782 189.0528 259.2407 188.6639C 258.8373 188.3823 258.3945 187.8728 257.9124 187.1353C 256.2038 187.4705 254.4952 187.8058 252.7866 188.141C 253.4218 193.4274 254.0571 198.7137 254.6924 204z" stroke="#000000" stroke-width="1" fill="none" /><path transform="matrix(1 0 0 -1 0 540)" d="M318 174C 324 174 330 174 336 174C 336 172.1243 336 170.2487 336 168.373C 334.4351 166.4631 333.1278 164.3963 332.078 162.1725C 330.8058 159.4709 329.8012 156.4627 329.0641 153.1478C 328.4787 150.5692 328.085 147.52 327.8829 144C 325.8382 144 323.7934 144 321.7487 144C 322.2324 148.8978 322.9933 153.0043 324.0311 156.3194C 325.069 159.6345 326.7115 163.1816 328.9586 166.9609C 325.3057 166.9609 321.6528 166.9609 318 166.9609C 318 169.3072 318 171.6536 318 174z" stroke="none" fill="#000000" fill-rule="winding" /><path transform="matrix(1 0 0 -1 0 540)" d="M318 174C 324 174 330 174 336 174C 336 172.1243 336 170.2487 336 168.373C 334.4351 166.4631 333.1278 164.3963 332.078 162.1726C 330.8058 159.4709 329.8012 156.4627 329.0641 153.1478C 328.4787 150.5693 328.085 147.52 327.883 144C 325.8382 144 323.7935 144 321.7487 144C 322.2325 148.8979 322.9933 153.0043 324.0311 156.3194C 325.069 159.6345 326.7115 163.1817 328.9586 166.9609C 325.3057 166.9609 321.6529 166.9609 318 166.9609C 318 169.3073 318 171.6536 318 174z" stroke="#000000" stroke-width="1" fill="none" /></g></g></g></g></svg>