<svg xmlns="http://www.w3.org/2000/svg" xmlns:xlink="http://www.w3.org/1999/xlink" id="body_9" preserveAspectRatio="xMinYMin meet" viewBox="0 0 960 720"><defs><clipPath id="1"><path d="M0 540L0 0L0 0L720 0L720 0L720 540L720 540L0 540z" /></clipPath><clipPath id="2"><path d="M0 539.9999L719.9999 539.9999L719.9999 539.9999L719.9999 6.103516E-05L719.9999 6.103516E-05L0 6.103516E-05z" /></clipPath><clipPath id="3"><path d="M0 540L719.9999 540L719.9999 540L719.9999 0L719.9999 0L0 0z" /></clipPath><clipPath id="4"><path d="M36.87503 150L683.1249 150L683.1249 150L683.1249 144.25L683.1249 144.25L36.87503 144.25z" /></clipPath><linearGradient transform="matrix(1 0 0 1 0 0)" id="680" x1="359.9488" y1="398.6245" x2="359.9488398.6245" y2="359.948811.49908"><stop stop-color="#127B18" offset="0%" /><stop stop-color="#E3EED8" offset="100%" /></linearGradient><clipPath id="5"><path d="M0 540L719.9999 540L719.9999 540L719.9999 0L719.9999 0L0 0z" /></clipPath><clipPath id="6"><path d="M554.9062 420C 558.3278 420 561.7495 420 565.1711 420C 566.3276 431.3402 567.1711 440.9329 567.7018 448.778C 568.2256 440.8468 568.7595 433.809 569.3035 427.6648C 569.5186 425.1099 569.7337 422.555 569.9488 420C 573.3704 420 576.7921 420 580.2136 420C 578.5698 433.7072 576.926 447.4145 575.2822 461.1217C 570.3705 461.1217 565.4589 461.1217 560.5472 461.1217C 558.6668 447.4145 556.7865 433.7072 554.9062 420zM591.6552 426.8103C 594.2751 426.8103 596.4366 427.3558 598.1395 428.4467C 599.8425 429.5376 601.0367 430.9837 601.7224 432.7851C 602.4081 434.5865 602.7509 437.1197 602.7509 440.3846C 602.7509 441.873 602.7509 443.3614 602.7509 444.8498C 598.7143 444.8498 594.6777 444.8498 590.6412 444.8498C 590.6412 447.2842 590.6412 449.7187 590.6412 452.1531C 590.6412 453.6802 590.7422 454.6643 590.9442 455.1054C 591.1462 455.5465 591.5347 455.767 592.1098 455.767C 592.8248 455.767 593.3027 455.4742 593.5437 454.8885C 593.7846 454.3029 593.9051 453.1699 593.9051 451.4895C 593.9051 450.0041 593.9051 448.5186 593.9051 447.0332C 596.8537 447.0332 599.8023 447.0332 602.7509 447.0332C 602.7509 447.8647 602.7509 448.6963 602.7509 449.5278C 602.7509 451.6149 602.6314 453.2183 602.3924 454.3382C 602.1534 455.4581 601.5948 456.6544 600.7165 457.9273C 599.8381 459.2002 598.7248 460.1548 597.3764 460.7911C 596.028 461.4274 594.3367 461.7455 592.3027 461.7455C 590.3298 461.7455 588.5883 461.4321 587.0782 460.8053C 585.5682 460.1785 584.3932 459.3188 583.5533 458.2263C 582.7135 457.1337 582.1317 455.9311 581.8079 454.6184C 581.4842 453.3058 581.3223 451.3961 581.3223 448.8893C 581.3223 445.6117 581.3223 442.3341 581.3223 439.0565C 581.3223 436.1095 581.6845 433.7848 582.4088 432.0825C 583.1332 430.3802 584.3198 429.0759 585.9688 428.1697C 587.6178 427.2634 589.5132 426.8103 591.6552 426.8103zM620.6426 426.8103C 620.6426 430.7613 620.6426 434.7123 620.6426 438.6633C 618.9288 438.6633 617.6706 438.9174 616.8679 439.4257C 616.0652 439.9339 615.5712 440.641 615.386 441.547C 615.2007 442.4529 615.108 444.5403 615.108 447.809C 615.108 452.2465 615.108 456.6841 615.108 461.1217C 612.0018 461.1217 608.8955 461.1217 605.7892 461.1217C 605.7892 449.8925 605.7892 438.6633 605.7892 427.4342C 608.8797 427.4342 611.9702 427.4342 615.0607 427.4342C 614.9504 428.9128 614.84 430.3914 614.7296 431.8701C 616.0901 428.6843 618.0611 426.9977 620.6426 426.8103zM621.6348 427.4342C 624.4534 427.4342 627.2719 427.4342 630.0904 427.4342C 631.1113 435.0267 632.1323 442.6192 633.1533 450.2117C 633.6539 442.6192 634.1545 435.0267 634.6552 427.4342C 637.4697 427.4342 640.2843 427.4342 643.0989 427.4342C 642.209 435.5574 641.3191 443.6806 640.4292 451.8038C 640.0063 455.6677 639.6528 458.3021 639.3685 459.7071C 639.0842 461.1121 638.6115 462.2718 637.9501 463.1861C 637.2889 464.1005 636.3702 464.7735 635.194 465.2051C 634.0178 465.6367 632.1382 465.8525 629.5552 465.8525C 627.672 465.8525 625.7887 465.8525 623.9055 465.8525C 623.9055 464.0503 623.9055 462.2481 623.9055 460.4459C 625.3526 460.4459 626.2841 460.3654 626.6996 460.2046C 627.1153 460.0438 627.3231 459.6844 627.3231 459.1267C 627.3231 458.8559 627.1304 457.6802 626.7451 455.5997C 625.0417 446.2112 623.3383 436.8227 621.6348 427.4342zM592.1075 432.7888C 591.4453 432.7888 591.0353 433.0046 590.8777 433.4362C 590.72 433.8678 590.6412 435.0318 590.6412 436.9283C 590.6412 437.7492 590.6412 438.5702 590.6412 439.3911C 591.5715 439.3911 592.5018 439.3911 593.4321 439.3911C 593.4321 438.5702 593.4321 437.7492 593.4321 436.9283C 593.4321 435.1845 593.3453 434.0587 593.1719 433.5507C 592.9985 433.0428 592.6437 432.7888 592.1075 432.7888z" /></clipPath><clipPath id="7"><path d="M0 540L719.9999 540L719.9999 540L719.9999 0L719.9999 0L0 0z" /></clipPath><clipPath id="8"><path d="M497.9999 482.0955C 501.2481 482.0955 504.4963 482.0955 507.7444 482.0955C 507.7444 495.8028 507.7444 509.51 507.7444 523.2172C 504.4963 523.2172 501.2481 523.2172 497.9999 523.2172C 497.9999 509.51 497.9999 495.8028 497.9999 482.0955zM691.735 482.0955C 695.1566 482.0955 698.5782 482.0955 701.9999 482.0955C 701.4911 492.4236 700.9824 502.7517 700.4736 513.0798C 698.0692 513.0798 695.6649 513.0798 693.2606 513.0798C 692.752 502.7517 692.2435 492.4236 691.735 482.0955zM614.8083 485.0588C 617.9146 485.0588 621.0209 485.0588 624.1272 485.0588C 624.1272 486.8264 624.1272 488.5939 624.1272 490.3615C 624.9944 490.3615 625.8616 490.3615 626.7289 490.3615C 626.7289 492.1463 626.7289 493.9312 626.7289 495.7161C 625.8616 495.7161 624.9944 495.7161 624.1272 495.7161C 624.1272 501.7195 624.1272 507.7229 624.1272 513.7263C 624.1272 515.9417 624.2336 517.1763 624.4465 517.43C 624.6594 517.6837 625.5463 517.8105 627.1073 517.8105C 627.1073 519.6128 627.1073 521.415 627.1073 523.2172C 625.8488 523.2172 624.5903 523.2172 623.3318 523.2172C 621.2012 523.2172 619.6804 523.12 618.7693 522.9256C 617.8582 522.7312 617.0551 522.2833 616.3601 521.582C 615.6651 520.8808 615.2327 520.0782 615.063 519.1744C 614.8932 518.2706 614.8083 516.1456 614.8083 512.7995C 614.8083 507.105 614.8083 501.4106 614.8083 495.7161C 614.1461 495.7161 613.4838 495.7161 612.8216 495.7161C 612.8216 493.9312 612.8216 492.1463 612.8216 490.3615C 613.4838 490.3615 614.1461 490.3615 614.8083 490.3615C 614.8083 488.5939 614.8083 486.8264 614.8083 485.0588zM677.7952 485.0588C 680.9014 485.0588 684.0078 485.0588 687.114 485.0588C 687.114 486.8264 687.114 488.5939 687.114 490.3615C 687.9813 490.3615 688.8484 490.3615 689.7157 490.3615C 689.7157 492.1463 689.7157 493.9312 689.7157 495.7161C 688.8484 495.7161 687.9813 495.7161 687.114 495.7161C 687.114 501.7195 687.114 507.7229 687.114 513.7263C 687.114 515.9417 687.2205 517.1763 687.4333 517.43C 687.6462 517.6837 688.5331 517.8105 690.0941 517.8105C 690.0941 519.6128 690.0941 521.415 690.0941 523.2172C 688.8356 523.2172 687.5772 523.2172 686.3187 523.2172C 684.188 523.2172 682.6672 523.12 681.7561 522.9256C 680.845 522.7312 680.042 522.2833 679.347 521.582C 678.652 520.8808 678.2195 520.0782 678.0498 519.1744C 677.8801 518.2706 677.7952 516.1456 677.7952 512.7995C 677.7952 507.105 677.7952 501.4106 677.7952 495.7161C 677.1329 495.7161 676.4707 495.7161 675.8084 495.7161C 675.8084 493.9312 675.8084 492.1463 675.8084 490.3615C 676.4707 490.3615 677.1329 490.3615 677.7952 490.3615C 677.7952 488.5939 677.7952 486.8264 677.7952 485.0588zM526.4224 488.9058C 528.9132 488.9058 530.8736 490.1841 532.3036 492.7407C 533.088 491.4621 533.9722 490.5033 534.9562 489.8643C 535.9402 489.2253 537.0322 488.9058 538.2321 488.9058C 539.8157 488.9058 541.1265 489.3292 542.1645 490.1758C 543.2025 491.0225 543.8676 492.0596 544.1598 493.2869C 544.452 494.5143 544.5981 496.5078 544.5981 499.2675C 544.5981 507.2507 544.5981 515.2339 544.5981 523.2172C 541.5864 523.2172 538.5748 523.2172 535.563 523.2172C 535.563 515.897 535.563 508.5769 535.563 501.2568C 535.563 498.3796 535.4745 496.5983 535.2974 495.9127C 535.1202 495.2271 534.7079 494.8843 534.0604 494.8843C 533.3977 494.8843 532.97 495.2228 532.7773 495.8997C 532.5847 496.5766 532.4883 498.3623 532.4883 501.2568C 532.4883 508.5769 532.4883 515.897 532.4883 523.2172C 529.4767 523.2172 526.465 523.2172 523.4534 523.2172C 523.4534 516.0831 523.4534 508.949 523.4534 501.8148C 523.4534 498.5147 523.3802 496.5346 523.2338 495.8745C 523.0875 495.2144 522.6829 494.8843 522.0202 494.8843C 521.6043 494.8843 521.25 495.0577 520.9573 495.4046C 520.6647 495.7514 520.5029 496.1745 520.4721 496.6738C 520.4413 497.1731 520.4259 498.2353 520.4259 499.8604C 520.4259 507.646 520.4259 515.4316 520.4259 523.2172C 517.4142 523.2172 514.4026 523.2172 511.3909 523.2172C 511.3909 511.988 511.3909 500.7589 511.3909 489.5297C 514.4499 489.5297 517.5089 489.5297 520.5678 489.5297C 520.5205 490.6 520.4732 491.6703 520.4259 492.7407C 521.1487 491.4621 522.0098 490.5033 523.0092 489.8643C 524.0084 489.2253 525.1462 488.9058 526.4224 488.9058zM563.1653 488.9058C 564.614 488.9058 565.866 489.3335 566.9215 490.1888C 567.977 491.0442 568.6357 492.0309 568.8976 493.1489C 569.1594 494.2668 569.2904 496.164 569.2904 498.8402C 569.2904 503.5745 569.2904 508.3089 569.2904 513.0432C 569.2904 516.1088 569.1247 518.2896 568.7933 519.5854C 568.462 520.8813 567.7839 521.9146 566.7593 522.6852C 565.7346 523.4557 564.4982 523.8411 563.05 523.8411C 561.8945 523.8411 560.8237 523.5432 559.8374 522.9475C 558.8512 522.3519 557.9498 521.4667 557.1334 520.2921C 557.1334 522.8615 557.1334 525.4307 557.1334 528C 554.0271 528 550.9208 528 547.8145 528C 547.8145 515.1766 547.8145 502.3531 547.8145 489.5297C 550.975 489.5297 554.1355 489.5297 557.296 489.5297C 557.2418 490.5237 557.1876 491.5176 557.1334 492.5116C 557.9656 491.3013 558.8825 490.3977 559.884 489.801C 560.8855 489.2042 561.9792 488.9058 563.1653 488.9058zM582.4739 488.9058C 584.5671 488.9058 586.3641 489.2489 587.8651 489.935C 589.3659 490.6211 590.5244 491.5146 591.3403 492.6156C 592.1564 493.7165 592.7144 494.8513 593.0145 496.0199C 593.3146 497.1885 593.4646 498.9669 593.4646 501.3551C 593.4646 504.1077 593.4646 506.8603 593.4646 509.6129C 593.4646 512.6449 593.326 514.868 593.0488 516.2822C 592.7717 517.6964 592.179 519.0176 591.2709 520.2458C 590.3628 521.474 589.1968 522.3802 587.773 522.9646C 586.3492 523.5489 584.7137 523.8411 582.8664 523.8411C 580.8037 523.8411 579.0566 523.5912 577.6249 523.0917C 576.1932 522.5922 575.0811 521.8383 574.2885 520.8303C 573.4959 519.8222 572.9302 518.6025 572.5915 517.1713C 572.2527 515.74 572.0834 513.5931 572.0834 510.7306C 572.0834 507.8513 572.0834 504.972 572.0834 502.0926C 572.0834 498.9588 572.3912 496.5111 573.0069 494.7495C 573.6226 492.9879 574.7309 491.5735 576.3318 490.5064C 577.9327 489.4394 579.9801 488.9058 582.4739 488.9058zM611.4036 488.9058C 611.4036 492.8568 611.4036 496.8079 611.4036 500.7589C 609.6898 500.7589 608.4316 501.013 607.6289 501.5212C 606.8262 502.0294 606.3322 502.7365 606.147 503.6425C 605.9617 504.5485 605.8691 506.6358 605.8691 509.9045C 605.8691 514.342 605.8691 518.7796 605.8691 523.2172C 602.7628 523.2172 599.6565 523.2172 596.5502 523.2172C 596.5502 511.988 596.5502 500.7589 596.5502 489.5297C 599.6407 489.5297 602.7313 489.5297 605.8218 489.5297C 605.7114 491.0083 605.601 492.487 605.4906 493.9656C 606.8511 490.7798 608.8221 489.0932 611.4036 488.9058zM638.8593 488.9058C 642.0168 488.9058 644.3967 489.5197 645.9988 490.7473C 647.601 491.9749 648.5638 493.4819 648.8873 495.2681C 649.2108 497.0544 649.3725 500.7326 649.3725 506.3028C 649.3725 511.9409 649.3725 517.579 649.3725 523.2172C 646.3451 523.2172 643.3177 523.2172 640.2902 523.2172C 640.2902 522.2148 640.2902 521.2125 640.2902 520.2101C 639.7201 521.4204 638.9846 522.3281 638.0836 522.9333C 637.1826 523.5385 636.1083 523.8411 634.8607 523.8411C 633.2281 523.8411 631.7303 523.3372 630.3672 522.3293C 629.004 521.3216 628.3224 519.1157 628.3224 515.7116C 628.3224 514.7886 628.3224 513.8655 628.3224 512.9424C 628.3224 510.4195 628.6849 508.7007 629.41 507.786C 630.1351 506.8714 631.9323 505.8043 634.8015 504.5847C 637.8708 503.264 639.5135 502.375 639.7296 501.918C 639.9457 501.4609 640.0537 500.5298 640.0537 499.1245C 640.0537 497.364 639.9335 496.2172 639.693 495.684C 639.4526 495.1509 639.053 494.8843 638.4941 494.8843C 637.8575 494.8843 637.4616 495.1086 637.3064 495.5573C 637.1512 496.006 637.0736 497.1699 637.0736 499.049C 637.0736 500.2254 637.0736 501.4019 637.0736 502.5784C 634.1565 502.5784 631.2394 502.5784 628.3224 502.5784C 628.3224 501.8246 628.3224 501.0708 628.3224 500.317C 628.3224 497.7073 628.5959 495.6953 629.1428 494.2808C 629.6898 492.8663 630.7874 491.6169 632.4356 490.5324C 634.0839 489.448 636.225 488.9058 638.8593 488.9058zM667.7744 488.9058C 669.3773 488.9058 670.6873 489.3206 671.7043 490.1503C 672.7213 490.9799 673.3762 492.0255 673.6689 493.2869C 673.9615 494.5484 674.1079 496.6522 674.1079 499.5981C 674.1079 507.4711 674.1079 515.3442 674.1079 523.2172C 671.0016 523.2172 667.8954 523.2172 664.7891 523.2172C 664.7891 515.44 664.7891 507.6628 664.7891 499.8856C 664.7891 497.5668 664.7192 496.1535 664.5795 495.6458C 664.4399 495.1382 664.0519 494.8843 663.4158 494.8843C 662.7491 494.8843 662.3304 495.1763 662.1597 495.7604C 661.989 496.3444 661.9036 497.9058 661.9036 500.4445C 661.9036 508.0354 661.9036 515.6263 661.9036 523.2172C 658.7973 523.2172 655.691 523.2172 652.5847 523.2172C 652.5847 511.988 652.5847 500.7589 652.5847 489.5297C 655.7383 489.5297 658.8919 489.5297 662.0455 489.5297C 661.9982 490.5737 661.9509 491.6178 661.9036 492.6619C 662.5815 491.4099 663.4099 490.4708 664.3885 489.8448C 665.3671 489.2188 666.4957 488.9058 667.7744 488.9058zM558.5991 494.8843C 557.9787 494.8843 557.5793 495.1382 557.4009 495.6458C 557.2225 496.1535 557.1334 497.3808 557.1334 499.3276C 557.1334 503.9825 557.1334 508.6376 557.1334 513.2925C 557.1334 515.3239 557.2264 516.5933 557.4124 517.101C 557.5984 517.6087 558.0016 517.8625 558.6219 517.8625C 559.2271 517.8625 559.6033 517.6298 559.7505 517.1644C 559.8979 516.6989 559.9716 515.5692 559.9716 513.7751C 559.9716 508.9592 559.9716 504.1434 559.9716 499.3276C 559.9716 497.2454 559.9017 495.9843 559.762 495.5443C 559.6224 495.1043 559.2347 494.8843 558.5991 494.8843zM582.7969 494.8843C 582.2391 494.8843 581.8672 495.1086 581.6812 495.5573C 581.4952 496.006 581.4022 497.0935 581.4022 498.8199C 581.4022 503.8894 581.4022 508.959 581.4022 514.0285C 581.4022 515.6195 581.4952 516.6563 581.6812 517.1388C 581.8672 517.6213 582.2314 517.8625 582.774 517.8625C 583.3318 517.8625 583.6998 517.6426 583.8782 517.2026C 584.0566 516.7626 584.1458 515.8145 584.1458 514.3583C 584.1458 509.1788 584.1458 503.9994 584.1458 498.8199C 584.1458 497.0935 584.0605 496.006 583.89 495.5573C 583.7195 495.1086 583.3552 494.8843 582.7969 494.8843zM640.0537 507.1979C 638.5484 508.3996 637.6754 509.4067 637.4346 510.2192C 637.1939 511.0318 637.0736 512.2 637.0736 513.7239C 637.0736 515.4671 637.1784 516.5927 637.3881 517.1006C 637.5977 517.6086 638.013 517.8625 638.6339 517.8625C 639.2237 517.8625 639.6078 517.6637 639.7861 517.2659C 639.9645 516.8682 640.0537 515.8229 640.0537 514.1301C 640.0537 511.8193 640.0537 509.5086 640.0537 507.1979zM692.4918 515.0033C 695.4089 515.0033 698.3259 515.0033 701.243 515.0033C 701.243 517.7413 701.243 520.4792 701.243 523.2172C 698.3259 523.2172 695.4089 523.2172 692.4918 523.2172C 692.4918 520.4792 692.4918 517.7413 692.4918 515.0033z" /></clipPath><clipPath id="9"><path d="M0 540L719.9999 540L719.9999 540L719.9999 0L719.9999 0L0 0z" /></clipPath><clipPath id="10"><path d="M0 540L719.9999 540L719.9999 540L719.9999 0L719.9999 0L0 0z" /></clipPath></defs><g transform="matrix(1.333333 0 0 1.333333 0 0)"><g><g clip-path="url(#1)"><g clip-path="url(#2)"><g transform="matrix(0.9 0 0 0.9 0 0)"><g transform="matrix(1 0 0 1 0 0)"><image x="0" y="0" xlink:href="img_01.png" width="800" height="600" /></g></g></g><g clip-path="url(#3)"><g transform="matrix(0.3272727 0 0 0.3272728 31.41818 139.7455)"><g transform="matrix(1 0 0 1 0 0)"><image x="0" y="0" xlink:href="img_03.png" width="2008" height="51" /></g></g></g><g clip-path="url(#4)"><g><path transform="matrix(1 0 0 -1 0 540)" d="M0 390L720 384L720 384L720 395L720 395L0 402" stroke="none" fill="url(#680)" /><path transform="matrix(1 0 0 -1 0 540)" d="M0 391.3275L720 384.9225L720 384.9225L720 0L720 0L0 0" stroke="none" fill="#127B18" fill-rule="evenodd" /><path transform="matrix(1 0 0 -1 0 540)" d="M0 400.8275L720 394.4224L720 394.4224L720 540L720 540L0 540" stroke="none" fill="#E3EED8" fill-rule="evenodd" /></g></g><g clip-path="url(#5)"><g transform="matrix(0.3272727 0 0 0.3272727 57.92727 156.4364)"><g transform="matrix(1 0 0 1 0 0)"><image x="0" y="0" xlink:href="img_81.png" width="1749" height="150" /></g></g><g transform="matrix(0.3272728 0 0 0.3272727 85.0909 194.4)"><g transform="matrix(1 0 0 1 0 0)"><image x="0" y="0" xlink:href="img_82.png" width="786" height="151" /></g></g><g transform="matrix(0.3272727 0 0 0.3272727 57.92727 232.3636)"><g transform="matrix(1 0 0 1 0 0)"><image x="0" y="0" xlink:href="img_83.png" width="1168" height="178" /></g></g><g transform="matrix(0.3272728 0 0 0.3272727 85.0909 278.5091)"><g transform="matrix(1 0 0 1 0 0)"><image x="0" y="0" xlink:href="img_84.png" width="474" height="156" /></g></g><g transform="matrix(0.3272727 0 0 0.3272727 85.0909 317.4545)"><g transform="matrix(1 0 0 1 0 0)"><image x="0" y="0" xlink:href="img_85.png" width="920" height="150" /></g></g><g transform="matrix(0.3272727 0 0 0.3272727 85.0909 355.4181)"><g transform="matrix(1 0 0 1 0 0)"><image x="0" y="0" xlink:href="img_86.png" width="1140" height="151" /></g></g><g transform="matrix(0.3272727 0 0 0.3272727 85.0909 394.3636)"><g transform="matrix(1 0 0 1 0 0)"><image x="0" y="0" xlink:href="img_87.png" width="706" height="151" /></g></g><g transform="matrix(0.3272727 0 0 0.3272727 57.92727 432.3273)"><g transform="matrix(1 0 0 1 0 0)"><image x="0" y="0" xlink:href="img_88.png" width="1272" height="178" /></g></g><path transform="matrix(1 0 0 -1 0 540)" d="M479.9999 1.525879E-05L719.9999 1.525879E-05L719.9999 1.525879E-05L719.9999 132L719.9999 132L479.9999 132z" stroke="none" fill="#434DD6" fill-rule="evenodd" /><path transform="matrix(1 0 0 -1 0 540)" d="M479.9999 132L719.9998 132L719.9998 132L719.9998 3.051758E-05L719.9998 3.051758E-05L479.9999 3.051758E-05z" stroke="#000000" stroke-width="0.7499998" fill="none" /><g transform="matrix(0.3272727 0 0 0.3272727 551.4545 416.6182)"><g transform="matrix(1 0 0 1 0 0)"><image x="0" y="0" xlink:href="img_89.png" width="304" height="174" /></g></g><g transform="matrix(0.3272728 0 0 0.3272727 494.5091 478.8)"><g transform="matrix(1 0 0 1 0 0)"><image x="0" y="0" xlink:href="img_90.png" width="657" height="174" /></g></g></g><g clip-path="url(#6)"><g clip-path="url(#7)"><g transform="matrix(1.00219 0 0 0.9967931 554.9062 420)"><g transform="matrix(1 0 0 1 0 0)"><image x="0" y="0" xlink:href="img_91.png" width="88" height="46" /></g></g></g></g><g clip-path="url(#8)"><g clip-path="url(#9)"><g transform="matrix(1 0 0 0.9979233 497.9999 482.0955)"><g transform="matrix(1 0 0 1 0 0)"><image x="0" y="0" xlink:href="img_92.png" width="204" height="46" /></g></g></g></g><g clip-path="url(#10)"><path transform="matrix(1 0 0 -1 0 540)" d="M545.9999 102L497.4827 80.43684" stroke="#FF2600" stroke-width="5.999999" fill="none" /><path transform="matrix(1 0 0 -1 0 540)" d="M504.7933 93.53478L491.9999 77.99999L491.9999 77.99999L512.1038 77.08618z" stroke="none" fill="#FF2600" fill-rule="evenodd" /></g></g></g></g></svg>