<svg xmlns="http://www.w3.org/2000/svg" xmlns:xlink="http://www.w3.org/1999/xlink" id="body_10" preserveAspectRatio="xMinYMin meet" viewBox="0 0 960 720"><defs><clipPath id="1"><path d="M0 540L0 0L0 0L720 0L720 0L720 540L720 540L0 540z" /></clipPath><clipPath id="2"><path d="M0 539.9999L719.9999 539.9999L719.9999 539.9999L719.9999 6.103516E-05L719.9999 6.103516E-05L0 6.103516E-05z" /></clipPath><clipPath id="3"><path d="M0 540L719.9999 540L719.9999 540L719.9999 0L719.9999 0L0 0z" /></clipPath><clipPath id="4"><path d="M36.87503 150L683.1249 150L683.1249 150L683.1249 144.25L683.1249 144.25L36.87503 144.25z" /></clipPath><linearGradient transform="matrix(1 0 0 1 0 0)" id="680" x1="359.9488" y1="398.6245" x2="359.9488398.6245" y2="359.948811.49908"><stop stop-color="#127B18" offset="0%" /><stop stop-color="#E3EED8" offset="100%" /></linearGradient><clipPath id="5"><path d="M0 540L719.9999 540L719.9999 540L719.9999 0L719.9999 0L0 0z" /></clipPath><clipPath id="6"><path d="M413.6727 328.5818L466.6909 328.5818L466.6909 328.5818L466.6909 281.4545L466.6909 281.4545L413.6727 281.4545z" /></clipPath><clipPath id="7"><path d="M0 540L719.9999 540L719.9999 540L719.9999 0L719.9999 0L0 0z" /></clipPath></defs><g transform="matrix(1.333333 0 0 1.333333 0 0)"><g><g clip-path="url(#1)"><g clip-path="url(#2)"><g transform="matrix(0.9 0 0 0.9 0 0)"><g transform="matrix(1 0 0 1 0 0)"><image x="0" y="0" xlink:href="img_01.png" width="800" height="600" /></g></g></g><g clip-path="url(#3)"><g transform="matrix(0.3272727 0 0 0.3272728 31.41818 139.7455)"><g transform="matrix(1 0 0 1 0 0)"><image x="0" y="0" xlink:href="img_03.png" width="2008" height="51" /></g></g></g><g clip-path="url(#4)"><g><path transform="matrix(1 0 0 -1 0 540)" d="M0 390L720 384L720 384L720 395L720 395L0 402" stroke="none" fill="url(#680)" /><path transform="matrix(1 0 0 -1 0 540)" d="M0 391.3275L720 384.9225L720 384.9225L720 0L720 0L0 0" stroke="none" fill="#127B18" fill-rule="evenodd" /><path transform="matrix(1 0 0 -1 0 540)" d="M0 400.8275L720 394.4224L720 394.4224L720 540L720 540L0 540" stroke="none" fill="#E3EED8" fill-rule="evenodd" /></g></g><g clip-path="url(#5)"><g transform="matrix(0.3272727 0 0 0.3272727 57.92727 156.4364)"><g transform="matrix(1 0 0 1 0 0)"><image x="0" y="0" xlink:href="img_94.png" width="1825" height="150" /></g></g><g transform="matrix(0.3272727 0 0 0.3272727 85.0909 194.4)"><g transform="matrix(1 0 0 1 0 0)"><image x="0" y="0" xlink:href="img_95.png" width="1553" height="151" /></g></g><g transform="matrix(0.3272727 0 0 0.3272727 57.92727 232.3636)"><g transform="matrix(1 0 0 1 0 0)"><image x="0" y="0" xlink:href="img_96.png" width="1663" height="178" /></g></g><g transform="matrix(0.3272727 0 0 0.3272727 85.0909 278.5091)"><g transform="matrix(1 0 0 1 0 0)"><image x="0" y="0" xlink:href="img_97.png" width="1186" height="150" /></g></g><g transform="matrix(0.3272727 0 0 0.3272727 57.92727 317.4545)"><g transform="matrix(1 0 0 1 0 0)"><image x="0" y="0" xlink:href="img_98.png" width="1532" height="172" /></g></g><g transform="matrix(0.3272727 0 0 0.3272727 57.92727 363.6)"><g transform="matrix(1 0 0 1 0 0)"><image x="0" y="0" xlink:href="img_99.png" width="1672" height="171" /></g></g></g><g clip-path="url(#6)"><g transform="matrix(0.3272727 0 0 0.3272727 413.6727 281.4545)"><g transform="matrix(1 0 0 1 0 0)"><image x="0" y="0" xlink:href="img_100.png" width="162" height="144" /></g></g></g><g clip-path="url(#7)"><path transform="matrix(1 0 0 -1 0 540)" d="M126 114C 130.2272 114 134.4545 114 138.6817 114C 144.1767 104.6145 149.6717 95.22893 155.1666 85.84338C 155.1666 95.22893 155.1666 104.6145 155.1666 114C 159.4444 114 163.7222 114 168 114C 168 97.00001 168 80.00002 168 63.00002C 163.7222 63.00002 159.4444 63.00002 155.1666 63.00002C 149.7017 72.33473 144.2368 81.66945 138.7719 91.00416C 138.7719 81.66945 138.7719 72.33473 138.7719 63.00002C 134.5146 63.00002 130.2573 63.00002 126 63.00002C 126 80.00002 126 97.00001 126 114z" stroke="none" fill="#FFFFFF" fill-rule="winding" /><path transform="matrix(1 0 0 -1 0 540)" d="M126 114C 130.2272 114 134.4545 114 138.6817 114C 144.1767 104.6145 149.6717 95.22892 155.1667 85.84337C 155.1667 95.22892 155.1667 104.6145 155.1667 114C 159.4445 114 163.7222 114 168 114C 168 97 168 80 168 63C 163.7222 63 159.4445 63 155.1667 63C 149.7018 72.33472 144.2368 81.66944 138.7719 91.00415C 138.7719 81.66944 138.7719 72.33472 138.7719 63C 134.5146 63 130.2573 63 126 63C 126 80 126 97 126 114z" stroke="#000000" stroke-width="6" fill="none" /><path transform="matrix(1 0 0 -1 0 540)" d="M194.757 114C 209.4845 114 224.2121 114 238.9396 114C 238.9396 110.5992 238.9396 107.1984 238.9396 103.7976C 229.4834 93.8548 220.0272 83.91204 210.571 73.96928C 220.3807 73.96928 230.1903 73.96928 240 73.96928C 240 70.31287 240 66.65644 240 63.00002C 224 63.00002 208 63.00002 192 63.00002C 192 66.52845 192 70.05688 192 73.58532C 201.3579 83.4242 210.7157 93.26308 220.0736 103.102C 211.6347 103.102 203.1959 103.102 194.757 103.102C 194.757 106.7346 194.757 110.3673 194.757 114z" stroke="none" fill="#FFFFFF" fill-rule="winding" /><path transform="matrix(1 0 0 -1 0 540)" d="M194.757 114C 209.4845 114 224.2121 114 238.9396 114C 238.9396 110.5992 238.9396 107.1984 238.9396 103.7975C 229.4834 93.85479 220.0272 83.91203 210.571 73.96927C 220.3807 73.96927 230.1904 73.96927 240 73.96927C 240 70.31285 240 66.65643 240 63C 224 63 208 63 192 63C 192 66.52843 192 70.05687 192 73.5853C 201.3579 83.42419 210.7157 93.26307 220.0736 103.102C 211.6347 103.102 203.1959 103.102 194.757 103.102C 194.757 106.7346 194.757 110.3673 194.757 114z" stroke="#000000" stroke-width="6" fill="none" /><path transform="matrix(1 0 0 -1 0 540)" d="M270 114C 279.4258 114 288.8517 114 298.2776 114C 303.5207 114 307.5281 113.5819 310.2998 112.7457C 313.0716 111.9095 315.3064 110.3588 317.0043 108.0936C 318.7021 105.8283 319.5511 103.0697 319.5511 99.81763C 319.5511 96.98331 318.9005 94.53815 317.5993 92.48215C 316.2982 90.42616 314.5086 88.75932 312.2306 87.48166C 310.7796 86.66846 308.7901 85.99475 306.262 85.46053C 308.2811 84.83431 309.7517 84.20809 310.6737 83.58187C 311.297 83.16414 312.2007 82.27099 313.3848 80.90244C 314.5689 79.53387 315.3603 78.47823 315.759 77.73552C 318.506 72.82368 321.253 67.91185 324 63.00002C 317.6075 63.00002 311.2151 63.00002 304.8226 63.00002C 301.8008 68.18452 298.779 73.36903 295.7571 78.55354C 294.6082 80.56725 293.5842 81.87497 292.6853 82.4767C 291.4613 83.26319 290.075 83.65643 288.5265 83.65643C 288.0271 83.65643 287.5277 83.65643 287.0284 83.65643C 287.0284 76.77097 287.0284 69.88549 287.0284 63.00002C 281.3522 63.00002 275.6761 63.00002 270 63.00002C 270 80.00002 270 97.00001 270 114zM287.0284 103.6718C 287.0284 100.2053 287.0284 96.73884 287.0284 93.27235C 289.417 93.27235 291.8056 93.27235 294.1943 93.27235C 294.9693 93.27235 296.4698 93.50497 298.6959 93.97018C 299.8217 94.17941 300.7409 94.71455 301.4536 95.57561C 302.1663 96.43667 302.5227 97.42553 302.5227 98.54219C 302.5227 100.1938 301.96 101.4617 300.8346 102.3457C 299.7092 103.2298 297.5956 103.6718 294.4939 103.6718C 292.0054 103.6718 289.5169 103.6718 287.0284 103.6718z" stroke="none" fill="#FFFFFF" fill-rule="winding" /><path transform="matrix(1 0 0 -1 0 540)" d="M270 114C 279.4259 114 288.8517 114 298.2776 114C 303.5207 114 307.5281 113.5819 310.2998 112.7457C 313.0716 111.9095 315.3064 110.3588 317.0043 108.0936C 318.7022 105.8283 319.5511 103.0697 319.5511 99.81762C 319.5511 96.9833 318.9005 94.53814 317.5994 92.48214C 316.2982 90.42615 314.5086 88.75931 312.2307 87.48165C 310.7797 86.66844 308.7901 85.99474 306.2621 85.46052C 308.2812 84.8343 309.7517 84.20808 310.6738 83.58186C 311.297 83.16413 312.2007 82.27098 313.3848 80.90242C 314.5689 79.53386 315.3604 78.47823 315.7591 77.7355C 318.506 72.82367 321.253 67.91183 324 63C 317.6075 63 311.2151 63 304.8227 63C 301.8008 68.18451 298.779 73.36902 295.7571 78.55353C 294.6082 80.56723 293.5843 81.87496 292.6854 82.47669C 291.4613 83.26318 290.075 83.65642 288.5266 83.65642C 288.0272 83.65642 287.5278 83.65642 287.0284 83.65642C 287.0284 76.77095 287.0284 69.88548 287.0284 63C 281.3523 63 275.6761 63 270 63C 270 80 270 97 270 114zM287.0284 103.6718C 287.0284 100.2053 287.0284 96.73883 287.0284 93.27234C 289.417 93.27234 291.8057 93.27234 294.1943 93.27234C 294.9693 93.27234 296.4698 93.50496 298.6959 93.97017C 299.8217 94.1794 300.7409 94.71454 301.4537 95.5756C 302.1664 96.43666 302.5227 97.42552 302.5227 98.54218C 302.5227 100.1938 301.96 101.4616 300.8346 102.3457C 299.7092 103.2298 297.5957 103.6718 294.4939 103.6718C 292.0054 103.6718 289.5169 103.6718 287.0284 103.6718z" stroke="#000000" stroke-width="6" fill="none" /></g></g></g></g></svg>