<svg xmlns="http://www.w3.org/2000/svg" xmlns:xlink="http://www.w3.org/1999/xlink" id="body_15" preserveAspectRatio="xMinYMin meet" viewBox="0 0 960 720"><defs><clipPath id="1"><path d="M0 540L0 0L0 0L720 0L720 0L720 540L720 540L0 540z" /></clipPath><clipPath id="2"><path d="M0 539.9999L719.9999 539.9999L719.9999 539.9999L719.9999 6.103516E-05L719.9999 6.103516E-05L0 6.103516E-05z" /></clipPath><clipPath id="3"><path d="M0 540L719.9999 540L719.9999 540L719.9999 0L719.9999 0L0 0z" /></clipPath><clipPath id="4"><path d="M36.87503 150L683.1249 150L683.1249 150L683.1249 144.25L683.1249 144.25L36.87503 144.25z" /></clipPath><linearGradient transform="matrix(1 0 0 1 0 0)" id="680" x1="359.9488" y1="398.6245" x2="359.9488398.6245" y2="359.948811.49908"><stop stop-color="#127B18" offset="0%" /><stop stop-color="#E3EED8" offset="100%" /></linearGradient><clipPath id="5"><path d="M0 540L719.9999 540L719.9999 540L719.9999 0L719.9999 0L0 0z" /></clipPath></defs><g transform="matrix(1.333333 0 0 1.333333 0 0)"><g><g clip-path="url(#1)"><g clip-path="url(#2)"><g transform="matrix(0.9 0 0 0.9 0 0)"><g transform="matrix(1 0 0 1 0 0)"><image x="0" y="0" xlink:href="img_01.png" width="800" height="600" /></g></g></g><g clip-path="url(#3)"><g transform="matrix(0.3272727 0 0 0.3272728 31.41818 139.7455)"><g transform="matrix(1 0 0 1 0 0)"><image x="0" y="0" xlink:href="img_03.png" width="2008" height="51" /></g></g></g><g clip-path="url(#4)"><g><path transform="matrix(1 0 0 -1 0 540)" d="M0 390L720 384L720 384L720 395L720 395L0 402" stroke="none" fill="url(#680)" /><path transform="matrix(1 0 0 -1 0 540)" d="M0 391.3275L720 384.9225L720 384.9225L720 0L720 0L0 0" stroke="none" fill="#127B18" fill-rule="evenodd" /><path transform="matrix(1 0 0 -1 0 540)" d="M0 400.8275L720 394.4224L720 394.4224L720 540L720 540L0 540" stroke="none" fill="#E3EED8" fill-rule="evenodd" /></g></g><g clip-path="url(#5)"><g transform="matrix(0.3272727 0 0 0.3272727 57.92727 156.4364)"><g transform="matrix(1 0 0 1 0 0)"><image x="0" y="0" xlink:href="img_140.png" width="1055" height="150" /></g></g><g transform="matrix(0.3272727 0 0 0.3272727 83.12727 194.4)"><g transform="matrix(1 0 0 1 0 0)"><image x="0" y="0" xlink:href="img_141.png" width="926" height="151" /></g></g><g transform="matrix(0.3272727 0 0 0.3272727 83.12727 194.4)"><g transform="matrix(1 0 0 1 0 0)"><image x="0" y="0" xlink:href="img_142.png" width="926" height="151" /></g></g><g transform="matrix(0.3272727 0 0 0.3272727 83.12727 194.4)"><g transform="matrix(1 0 0 1 0 0)"><image x="0" y="0" xlink:href="img_143.png" width="926" height="151" /></g></g><g transform="matrix(0.3272727 0 0 0.3272727 85.0909 232.3636)"><g transform="matrix(1 0 0 1 0 0)"><image x="0" y="0" xlink:href="img_144.png" width="893" height="151" /></g></g><g transform="matrix(0.3272727 0 0 0.3272727 85.0909 232.3636)"><g transform="matrix(1 0 0 1 0 0)"><image x="0" y="0" xlink:href="img_145.png" width="893" height="151" /></g></g><g transform="matrix(0.3272727 0 0 0.3272727 85.0909 271.3091)"><g transform="matrix(1 0 0 1 0 0)"><image x="0" y="0" xlink:href="img_146.png" width="740" height="157" /></g></g><g transform="matrix(0.3272727 0 0 0.3272727 57.92727 309.6)"><g transform="matrix(1 0 0 1 0 0)"><image x="0" y="0" xlink:href="img_147.png" width="1074" height="171" /></g></g><g transform="matrix(0.3272727 0 0 0.3272727 85.0909 355.4181)"><g transform="matrix(1 0 0 1 0 0)"><image x="0" y="0" xlink:href="img_148.png" width="942" height="151" /></g></g><g transform="matrix(0.3272727 0 0 0.3272727 85.0909 394.3636)"><g transform="matrix(1 0 0 1 0 0)"><image x="0" y="0" xlink:href="img_149.png" width="914" height="151" /></g></g><path transform="matrix(1 0 0 -1 0 540)" d="M491.9999 168L473.9999 108" stroke="#000000" stroke-width="2.999999" fill="none" /><path transform="matrix(1 0 0 -1 0 540)" d="M496.3102 166.7069L496.3102 166.7069C 497.0243 169.0874 495.6735 171.5961 493.293 172.3102C 490.9125 173.0244 488.4039 171.6735 487.6897 169.2931C 486.9756 166.9126 488.3264 164.4039 490.7069 163.6898C 493.0873 162.9756 495.596 164.3265 496.3102 166.7069C 496.3102 166.7069 496.3102 166.7069 496.3102 166.7069z" stroke="none" fill="#000000" fill-rule="evenodd" /><path transform="matrix(1 0 0 -1 0 540)" d="M469.6897 109.2931L469.6897 109.2931C 468.9756 106.9126 470.3264 104.4039 472.7069 103.6898C 475.0873 102.9756 477.596 104.3265 478.3102 106.7069C 479.0243 109.0874 477.6735 111.5961 475.293 112.3102C 472.9125 113.0244 470.4039 111.6735 469.6897 109.2931C 469.6897 109.2931 469.6897 109.2931 469.6897 109.2931z" stroke="none" fill="#000000" fill-rule="evenodd" /><path transform="matrix(1 0 0 -1 0 540)" d="M527.9999 168L551.9999 108" stroke="#000000" stroke-width="2.999999" fill="none" /><path transform="matrix(1 0 0 -1 0 540)" d="M523.8218 166.3287L523.8218 166.3287C 522.8988 168.6363 524.0212 171.2551 526.3287 172.1781C 528.6362 173.1012 531.2551 171.9788 532.1781 169.6713C 533.1011 167.3637 531.9787 164.7449 529.6712 163.8219C 527.3636 162.8988 524.7448 164.0212 523.8218 166.3287C 523.8218 166.3287 523.8218 166.3287 523.8218 166.3287z" stroke="none" fill="#000000" fill-rule="evenodd" /><path transform="matrix(1 0 0 -1 0 540)" d="M556.1781 109.6713L556.1781 109.6713C 557.1011 107.3637 555.9787 104.7449 553.6712 103.8219C 551.3636 102.8988 548.7448 104.0212 547.8218 106.3287C 546.8988 108.6363 548.0212 111.2551 550.3287 112.1781C 552.6362 113.1012 555.2551 111.9788 556.1781 109.6713C 556.1781 109.6713 556.1781 109.6713 556.1781 109.6713z" stroke="none" fill="#000000" fill-rule="evenodd" /><path transform="matrix(1 0 0 -1 0 540)" d="M509.9999 246L509.9999 186" stroke="#000000" stroke-width="2.999999" fill="none" /><path transform="matrix(1 0 0 -1 0 540)" d="M505.4999 246L505.4999 246C 505.4999 248.4853 507.5146 250.5 509.9999 250.5C 512.4852 250.5 514.4999 248.4853 514.4999 246C 514.4999 243.5147 512.4852 241.5 509.9999 241.5C 507.5146 241.5 505.4999 243.5147 505.4999 246C 505.4999 246 505.4999 246 505.4999 246z" stroke="none" fill="#000000" fill-rule="evenodd" /><path transform="matrix(1 0 0 -1 0 540)" d="M514.4999 186L514.4999 186C 514.4999 183.5147 512.4852 181.5 509.9999 181.5C 507.5146 181.5 505.4999 183.5147 505.4999 186C 505.4999 188.4853 507.5146 190.5 509.9999 190.5C 512.4852 190.5 514.4999 188.4853 514.4999 186C 514.4999 186 514.4999 186 514.4999 186z" stroke="none" fill="#000000" fill-rule="evenodd" /><path transform="matrix(1 0 0 -1 0 540)" d="M420 270L486 264" stroke="#000000" stroke-width="2.999999" fill="none" /><path transform="matrix(1 0 0 -1 0 540)" d="M419.5926 265.5185L419.5926 265.5185C 417.1175 265.7435 415.2935 267.9323 415.5185 270.4074C 415.7435 272.8824 417.9323 274.7065 420.4074 274.4815C 422.8824 274.2565 424.7065 272.0676 424.4815 269.5926C 424.2565 267.1175 422.0676 265.2935 419.5926 265.5185C 419.5926 265.5185 419.5926 265.5185 419.5926 265.5185z" stroke="none" fill="#000000" fill-rule="evenodd" /><path transform="matrix(1 0 0 -1 0 540)" d="M486.4074 268.4815L486.4074 268.4815C 488.8824 268.2565 490.7065 266.0676 490.4815 263.5926C 490.2565 261.1175 488.0676 259.2935 485.5926 259.5185C 483.1175 259.7435 481.2935 261.9323 481.5185 264.4074C 481.7435 266.8824 483.9323 268.7065 486.4074 268.4815C 486.4074 268.4815 486.4074 268.4815 486.4074 268.4815z" stroke="none" fill="#000000" fill-rule="evenodd" /><path transform="matrix(1 0 0 -1 0 540)" d="M539.9999 264L611.9999 282" stroke="#000000" stroke-width="2.999999" fill="none" /><path transform="matrix(1 0 0 -1 0 540)" d="M538.9085 268.3656L538.9085 268.3656C 536.4974 267.7628 535.0316 265.3196 535.6343 262.9086C 536.2371 260.4975 538.6803 259.0316 541.0914 259.6343C 543.5024 260.2371 544.9683 262.6803 544.3656 265.0914C 543.7628 267.5024 541.3196 268.9684 538.9085 268.3656C 538.9085 268.3656 538.9085 268.3656 538.9085 268.3656z" stroke="none" fill="#000000" fill-rule="evenodd" /><path transform="matrix(1 0 0 -1 0 540)" d="M613.0914 277.6343L613.0914 277.6343C 615.5024 278.2371 616.9683 280.6803 616.3656 283.0914C 615.7628 285.5024 613.3196 286.9684 610.9085 286.3656C 608.4974 285.7628 607.0316 283.3196 607.6343 280.9086C 608.2371 278.4975 610.6803 277.0316 613.0914 277.6343C 613.0914 277.6343 613.0914 277.6343 613.0914 277.6343z" stroke="none" fill="#000000" fill-rule="evenodd" /><path transform="matrix(1 0 0 -1 0 540)" d="M485.9999 288C 485.9999 301.2548 496.7451 312 509.9999 312C 523.2547 312 533.9999 301.2548 533.9999 288C 533.9999 274.7452 523.2547 264 509.9999 264C 496.7451 264 485.9999 274.7452 485.9999 288z" stroke="#000000" stroke-width="2.999999" fill="none" /><path transform="matrix(1 0 0 -1 0 540)" d="M497.9999 297C 497.9999 298.6568 499.343 300 500.9999 300C 502.6568 300 503.9999 298.6568 503.9999 297C 503.9999 295.3431 502.6568 294 500.9999 294C 499.343 294 497.9999 295.3431 497.9999 297z" stroke="none" fill="#00D2A9" fill-rule="evenodd" /><path transform="matrix(1 0 0 -1 0 540)" d="M497.9999 297C 497.9999 298.6569 499.343 300 500.9999 300C 502.6567 300 503.9999 298.6569 503.9999 297C 503.9999 295.3431 502.6567 294 500.9999 294C 499.343 294 497.9999 295.3431 497.9999 297z" stroke="#000000" stroke-width="2.999999" fill="none" /><path transform="matrix(1 0 0 -1 0 540)" d="M515.9999 297C 515.9999 298.6568 517.3431 300 518.9999 300C 520.6568 300 521.9999 298.6568 521.9999 297C 521.9999 295.3431 520.6568 294 518.9999 294C 517.3431 294 515.9999 295.3431 515.9999 297z" stroke="none" fill="#00D2A9" fill-rule="evenodd" /><path transform="matrix(1 0 0 -1 0 540)" d="M515.9999 297C 515.9999 298.6569 517.343 300 518.9999 300C 520.6567 300 521.9999 298.6569 521.9999 297C 521.9999 295.3431 520.6567 294 518.9999 294C 517.343 294 515.9999 295.3431 515.9999 297z" stroke="#000000" stroke-width="2.999999" fill="none" /><path transform="matrix(1 0 0 -1 0 540)" d="M497.8059 276.4048C 498.0276 283.0285 503.5769 288.2183 510.2006 287.9966C 516.8243 287.7749 522.0142 282.2256 521.7925 275.6019C 517.0464 282.3919 507.6946 284.0488 500.9046 279.3027C 499.7396 278.4884 498.6963 277.5127 497.8059 276.4048z" stroke="none" fill="#00D2A9" fill-rule="evenodd" /><path transform="matrix(1 0 0 -1 0 540)" d="M497.8059 276.4048C 498.0276 283.0285 503.5769 288.2184 510.2006 287.9967C 516.8243 287.775 522.0142 282.2256 521.7925 275.6019C 517.0464 282.3919 507.6946 284.0489 500.9046 279.3028C 499.7396 278.4885 498.6963 277.5128 497.8059 276.4048z" stroke="#000000" stroke-width="3" fill="none" /><path transform="matrix(1 0 0 -1 0 540)" d="M547.4999 305.9983L557.6794 330.1104C 530.9672 351.6374 534.9758 383.8135 566.633 401.9779C 598.2902 420.1423 645.6081 417.4164 672.3204 395.8895C 699.0328 374.3626 695.0241 342.1864 663.3669 324.022C 640.0007 310.6149 607.0057 308.1943 579.9719 317.904z" stroke="none" fill="#D6D7FF" fill-rule="evenodd" /><path transform="matrix(1 0 0 -1 0 540)" d="M547.4999 305.9984L557.6794 330.1105C 530.9671 351.6374 534.9757 383.8136 566.6329 401.9779C 598.2902 420.1423 645.608 417.4164 672.3203 395.8895C 699.0327 374.3626 695.024 342.1865 663.3668 324.0221C 640.0005 310.615 607.0056 308.1944 579.9718 317.904z" stroke="#0433FF" stroke-width="4.499999" fill="none" /></g></g></g></g></svg>