<svg xmlns="http://www.w3.org/2000/svg" xmlns:xlink="http://www.w3.org/1999/xlink" id="body_18" preserveAspectRatio="xMinYMin meet" viewBox="0 0 960 720"><defs><clipPath id="1"><path d="M0 540L0 0L0 0L720 0L720 0L720 540L720 540L0 540z" /></clipPath><clipPath id="2"><path d="M0 539.9999L719.9999 539.9999L719.9999 539.9999L719.9999 6.103516E-05L719.9999 6.103516E-05L0 6.103516E-05z" /></clipPath><clipPath id="3"><path d="M0 540L719.9999 540L719.9999 540L719.9999 0L719.9999 0L0 0z" /></clipPath><clipPath id="4"><path d="M36.87503 150L683.1249 150L683.1249 150L683.1249 144.25L683.1249 144.25L36.87503 144.25z" /></clipPath><linearGradient transform="matrix(1 0 0 1 0 0)" id="680" x1="359.9488" y1="398.6245" x2="359.9488398.6245" y2="359.948811.49908"><stop stop-color="#127B18" offset="0%" /><stop stop-color="#E3EED8" offset="100%" /></linearGradient><clipPath id="5"><path d="M0 540L719.9999 540L719.9999 540L719.9999 0L719.9999 0L0 0z" /></clipPath></defs><g transform="matrix(1.333333 0 0 1.333333 0 0)"><g><g clip-path="url(#1)"><g clip-path="url(#2)"><g transform="matrix(0.9 0 0 0.9 0 0)"><g transform="matrix(1 0 0 1 0 0)"><image x="0" y="0" xlink:href="img_01.png" width="800" height="600" /></g></g></g><g clip-path="url(#3)"><g transform="matrix(0.3272727 0 0 0.3272728 31.41818 139.7455)"><g transform="matrix(1 0 0 1 0 0)"><image x="0" y="0" xlink:href="img_03.png" width="2008" height="51" /></g></g></g><g clip-path="url(#4)"><g><path transform="matrix(1 0 0 -1 0 540)" d="M0 390L720 384L720 384L720 395L720 395L0 402" stroke="none" fill="url(#680)" /><path transform="matrix(1 0 0 -1 0 540)" d="M0 391.3275L720 384.9225L720 384.9225L720 0L720 0L0 0" stroke="none" fill="#127B18" fill-rule="evenodd" /><path transform="matrix(1 0 0 -1 0 540)" d="M0 400.8275L720 394.4224L720 394.4224L720 540L720 540L0 540" stroke="none" fill="#E3EED8" fill-rule="evenodd" /></g></g><g clip-path="url(#5)"><g transform="matrix(0.3272727 0 0 0.3272727 57.92727 156.4364)"><g transform="matrix(1 0 0 1 0 0)"><image x="0" y="0" xlink:href="img_177.png" width="1080" height="150" /></g></g><g transform="matrix(0.3272727 0 0 0.3272727 85.0909 194.4)"><g transform="matrix(1 0 0 1 0 0)"><image x="0" y="0" xlink:href="img_178.png" width="893" height="151" /></g></g><path transform="matrix(1 0 0 -1 0 540)" d="M108 213C 108 257.735 164.4121 294 234 294C 303.5878 294 359.9999 257.735 359.9999 213C 359.9999 168.2649 303.5878 132 234 132C 164.4121 132 108 168.2649 108 213z" stroke="none" fill="#FFD5A9" fill-rule="evenodd" /><path transform="matrix(1 0 0 -1 0 540)" d="M108 213C 108 257.7351 164.4121 294 234 294C 303.5878 294 359.9999 257.7351 359.9999 213C 359.9999 168.265 303.5878 132 234 132C 164.4121 132 108 168.265 108 213z" stroke="#000000" stroke-width="0.7499998" fill="none" /><path transform="matrix(1 0 0 -1 0 540)" d="M270 207C 270 251.735 327.7552 288 398.9999 288C 470.2447 288 527.9999 251.735 527.9999 207C 527.9999 162.2649 470.2447 126 398.9999 126C 327.7552 126 270 162.2649 270 207z" stroke="none" fill="#0433FF" fill-rule="evenodd" fill-opacity="0.5019608" /><path transform="matrix(1 0 0 -1 0 540)" d="M270 207C 270 251.7351 327.7552 288 399 288C 470.2447 288 527.9999 251.7351 527.9999 207C 527.9999 162.265 470.2447 126 399 126C 327.7552 126 270 162.265 270 207z" stroke="#000000" stroke-width="0.7499998" fill="none" /><path transform="matrix(1 0 0 -1 0 540)" d="M168.25 145.75C 162 147.75 155.75 149.75 150 152.875C 147.875 154 143.875 156.875 143.875 156.875C 142.5 161.375 138.375 164.125 134.75 167C 130.375 170.5 135.25 167.625 130.75 172.125C 129.25 173.625 127.25 174.625 125.625 176.125C 124.625 179.125 123.25 182.625 121.625 185.25C 118.125 191.25 121 182.75 117.625 190.375C 117.25 191.25 115.125 197.5 114.5 199.5C 114.125 200.5 113.5 202.5 113.5 202.5C 114.75 215 110 216.5 112.5 228.875C 112.75 230.375 118 242.5 118.625 243C 120.625 244.375 120.25 250.375 122.625 251.125C 124.625 251.75 128 257.125 129.75 258.25C 136.75 262.875 133.5 262.625 138.875 264.375C 144.25 272.25 138.25 262.375 149 272.5C 151.5 274.75 162.875 278.125 166.25 279.5C 173.875 282.75 189.625 288.125 197.625 289.625C 213.8749 292.625 222.8749 290.5 239.25 292.75C 258.125 291 269.7499 289.375 287.875 283.625C 291.2499 281.375 303.2499 278.75 307.1249 277.5C 307.7499 276.75 320.6249 272 321.3749 271.375C 322.2499 270.625 311.1249 269.625 311.1249 268.375C 311.1249 267.875 302.8749 264.125 301.9999 263.375C 298.9999 261 295.2499 258.25 291.8749 256.25C 285.125 252.25 296.7499 257.625 289.8749 252.125C 286.4999 249.375 284.7499 247.375 281.7499 244.125C 279.7499 238.125 282.375 243.875 277.7499 238C 274.875 234.25 274.2499 231.875 271.625 227.875C 270.375 226.125 270.375 221.75 269.625 219.75C 269.2499 218.75 268.625 213.625 268.625 213.625C 270.875 199.5 266.125 199.875 270.625 186.25C 271.375 183.9999 283.4999 164 284.875 162C 290.6249 153.375 306.8749 156.375 310.1249 146.75C 299.2499 143.125 283.625 134.25 270.625 133.625C 262.125 132.5 241.5 133.25 233.125 131.625C 217.625 133.5 211.25 134.25 195.625 135.625C 192 136.375 183.875 141.5 179.375 142.75C 175.875 143.75 171.875 145.75 168.25 145.75z" stroke="#FF2600" stroke-width="7.999998" fill="none" /><path transform="matrix(1 0 0 -1 0 540)" d="M519.7504 248.8748L539.1986 268.966C 523.4303 296.8752 544.585 328.022 586.4489 338.5342C 628.3128 349.0464 675.0329 334.9433 690.8012 307.034C 706.5695 279.1247 685.4148 247.978 643.5509 237.4658C 612.6512 229.7067 577.7799 235.2283 555.4136 251.4215z" stroke="none" fill="#00D2A9" fill-rule="evenodd" /><path transform="matrix(1 0 0 -1 0 540)" d="M519.7504 248.8748L539.1985 268.966C 523.4302 296.8753 544.5849 328.022 586.4488 338.5342C 628.3127 349.0464 675.0328 334.9433 690.8011 307.034C 706.5695 279.1248 685.4147 247.978 643.5508 237.4659C 612.6511 229.7068 577.7798 235.2283 555.4135 251.4215z" stroke="#000000" stroke-width="0.7499998" fill="none" /><path transform="matrix(1 0 0 -1 0 540)" d="M305.6461 137.7752L290.7561 165.3304L290.7561 165.3304L318.3552 150.5219z" stroke="none" fill="#FFFFFF" fill-rule="evenodd" /><path transform="matrix(1 0 0 -1 0 540)" d="M331.2677 160.0357L316.3777 187.5909L316.3777 187.5909L343.9768 172.7824z" stroke="none" fill="#FFFFFF" fill-rule="evenodd" /><path transform="matrix(1 0 0 -1 0 540)" d="M318.4568 148.9054L303.5669 176.4606L303.5669 176.4606L331.166 161.6521z" stroke="none" fill="#FFFFFF" fill-rule="evenodd" /><path transform="matrix(1 0 0 -1 0 540)" d="M356.8892 182.2962L341.9993 209.8514L341.9993 209.8514L369.5983 195.043z" stroke="none" fill="#FFFFFF" fill-rule="evenodd" /><path transform="matrix(1 0 0 -1 0 540)" d="M344.0784 171.166L329.1885 198.7212L329.1885 198.7212L356.7875 183.9127z" stroke="none" fill="#FFFFFF" fill-rule="evenodd" /><path transform="matrix(1 0 0 -1 0 540)" d="M320.1841 271.5036L303.5717 244.9512L303.5717 244.9512L332.0568 257.9743z" stroke="none" fill="#FFFFFF" fill-rule="evenodd" /><path transform="matrix(1 0 0 -1 0 540)" d="M344.338 247.6585L327.7256 221.1061L327.7256 221.1061L356.2107 234.1292z" stroke="none" fill="#FFFFFF" fill-rule="evenodd" /><path transform="matrix(1 0 0 -1 0 540)" d="M332.2611 259.5811L315.6487 233.0287L315.6487 233.0287L344.1337 246.0518z" stroke="none" fill="#FFFFFF" fill-rule="evenodd" /><path transform="matrix(1 0 0 -1 0 540)" d="M368.4919 223.8134L351.8794 197.261L351.8794 197.261L380.3645 210.2841z" stroke="none" fill="#FFFFFF" fill-rule="evenodd" /><path transform="matrix(1 0 0 -1 0 540)" d="M356.4149 235.7359L339.8025 209.1835L339.8025 209.1835L368.2876 222.2066z" stroke="none" fill="#FFFFFF" fill-rule="evenodd" /></g></g></g></g></svg>