<svg xmlns="http://www.w3.org/2000/svg" xmlns:xlink="http://www.w3.org/1999/xlink" id="body_16" preserveAspectRatio="xMinYMin meet" viewBox="0 0 960 720"><defs><clipPath id="1"><path d="M0 540L0 0L0 0L720 0L720 0L720 540L720 540L0 540z" /></clipPath><clipPath id="2"><path d="M0 539.9999L719.9999 539.9999L719.9999 539.9999L719.9999 6.103516E-05L719.9999 6.103516E-05L0 6.103516E-05z" /></clipPath><clipPath id="3"><path d="M0 540L719.9999 540L719.9999 540L719.9999 0L719.9999 0L0 0z" /></clipPath><clipPath id="4"><path d="M36.87503 150L683.1249 150L683.1249 150L683.1249 144.25L683.1249 144.25L36.87503 144.25z" /></clipPath><linearGradient transform="matrix(1 0 0 1 0 0)" id="680" x1="359.9488" y1="398.6245" x2="359.9488398.6245" y2="359.948811.49908"><stop stop-color="#127B18" offset="0%" /><stop stop-color="#E3EED8" offset="100%" /></linearGradient><clipPath id="5"><path d="M0 540L719.9999 540L719.9999 540L719.9999 0L719.9999 0L0 0z" /></clipPath></defs><g transform="matrix(1.333333 0 0 1.333333 0 0)"><g><g clip-path="url(#1)"><g clip-path="url(#2)"><g transform="matrix(0.9 0 0 0.9 0 0)"><g transform="matrix(1 0 0 1 0 0)"><image x="0" y="0" xlink:href="img_01.png" width="800" height="600" /></g></g></g><g clip-path="url(#3)"><g transform="matrix(0.3272727 0 0 0.3272728 31.41818 139.7455)"><g transform="matrix(1 0 0 1 0 0)"><image x="0" y="0" xlink:href="img_03.png" width="2008" height="51" /></g></g></g><g clip-path="url(#4)"><g><path transform="matrix(1 0 0 -1 0 540)" d="M0 390L720 384L720 384L720 395L720 395L0 402" stroke="none" fill="url(#680)" /><path transform="matrix(1 0 0 -1 0 540)" d="M0 391.3275L720 384.9225L720 384.9225L720 0L720 0L0 0" stroke="none" fill="#127B18" fill-rule="evenodd" /><path transform="matrix(1 0 0 -1 0 540)" d="M0 400.8275L720 394.4224L720 394.4224L720 540L720 540L0 540" stroke="none" fill="#E3EED8" fill-rule="evenodd" /></g></g><g clip-path="url(#5)"><g transform="matrix(0.3272727 0 0 0.3272727 57.92727 156.4364)"><g transform="matrix(1 0 0 1 0 0)"><image x="0" y="0" xlink:href="img_151.png" width="1654" height="150" /></g></g><g transform="matrix(0.3272727 0 0 0.3272727 85.0909 194.4)"><g transform="matrix(1 0 0 1 0 0)"><image x="0" y="0" xlink:href="img_152.png" width="1669" height="151" /></g></g><g transform="matrix(0.3272727 0 0 0.3272727 85.0909 232.3636)"><g transform="matrix(1 0 0 1 0 0)"><image x="0" y="0" xlink:href="img_153.png" width="761" height="151" /></g></g><g transform="matrix(0.3272727 0 0 0.3272727 57.92727 271.3091)"><g transform="matrix(1 0 0 1 0 0)"><image x="0" y="0" xlink:href="img_154.png" width="1095" height="178" /></g></g><g transform="matrix(0.3272727 0 0 0.3272727 57.92727 271.3091)"><g transform="matrix(1 0 0 1 0 0)"><image x="0" y="0" xlink:href="img_155.png" width="1095" height="178" /></g></g><g transform="matrix(0.3272727 0 0 0.3272727 57.92727 271.3091)"><g transform="matrix(1 0 0 1 0 0)"><image x="0" y="0" xlink:href="img_156.png" width="1095" height="178" /></g></g><g transform="matrix(0.3272727 0 0 0.3272727 57.92727 271.3091)"><g transform="matrix(1 0 0 1 0 0)"><image x="0" y="0" xlink:href="img_157.png" width="1095" height="178" /></g></g><g transform="matrix(0.3272727 0 0 0.3272727 57.92727 271.3091)"><g transform="matrix(1 0 0 1 0 0)"><image x="0" y="0" xlink:href="img_158.png" width="1095" height="178" /></g></g><g transform="matrix(0.3272727 0 0 0.3272727 85.0909 317.4545)"><g transform="matrix(1 0 0 1 0 0)"><image x="0" y="0" xlink:href="img_159.png" width="1253" height="157" /></g></g><g transform="matrix(0.3272727 0 0 0.3272727 85.0909 317.4545)"><g transform="matrix(1 0 0 1 0 0)"><image x="0" y="0" xlink:href="img_160.png" width="1253" height="157" /></g></g><g transform="matrix(0.3272727 0 0 0.3272727 85.0909 317.4545)"><g transform="matrix(1 0 0 1 0 0)"><image x="0" y="0" xlink:href="img_161.png" width="1253" height="157" /></g></g><g transform="matrix(0.3272727 0 0 0.3272727 85.0909 317.4545)"><g transform="matrix(1 0 0 1 0 0)"><image x="0" y="0" xlink:href="img_162.png" width="1253" height="157" /></g></g><g transform="matrix(0.3272727 0 0 0.3272727 85.0909 317.4545)"><g transform="matrix(1 0 0 1 0 0)"><image x="0" y="0" xlink:href="img_163.png" width="1253" height="157" /></g></g><g transform="matrix(0.3272727 0 0 0.3272727 57.92727 355.4182)"><g transform="matrix(1 0 0 1 0 0)"><image x="0" y="0" xlink:href="img_164.png" width="572" height="172" /></g></g><g transform="matrix(0.3272727 0 0 0.3272727 85.0909 401.5636)"><g transform="matrix(1 0 0 1 0 0)"><image x="0" y="0" xlink:href="img_165.png" width="1568" height="150" /></g></g><g transform="matrix(0.3272727 0 0 0.3272727 85.0909 401.5636)"><g transform="matrix(1 0 0 1 0 0)"><image x="0" y="0" xlink:href="img_166.png" width="1568" height="150" /></g></g><g transform="matrix(0.3272727 0 0 0.3272727 144.9818 439.5273)"><g transform="matrix(1 0 0 1 0 0)"><image x="0" y="0" xlink:href="img_167.png" width="1358" height="22" /></g></g><g transform="matrix(0.3272727 0 0 0.3272727 85.0909 401.5636)"><g transform="matrix(1 0 0 1 0 0)"><image x="0" y="0" xlink:href="img_168.png" width="1568" height="150" /></g></g><path transform="matrix(1 0 0 -1 0 540)" d="M146.2 97.39999L585.2 97.39999L585.2 97.39999L585.2 99.39999L585.2 99.39999L146.2 99.39999z" stroke="none" fill="#000000" fill-rule="evenodd" /></g></g></g></g></svg>