<svg xmlns="http://www.w3.org/2000/svg" xmlns:xlink="http://www.w3.org/1999/xlink" id="body_24" preserveAspectRatio="xMinYMin meet" viewBox="0 0 960 720"><defs><clipPath id="1"><path d="M0 540L0 0L0 0L720 0L720 0L720 540L720 540L0 540z" /></clipPath><clipPath id="2"><path d="M0 539.9999L719.9999 539.9999L719.9999 539.9999L719.9999 6.103516E-05L719.9999 6.103516E-05L0 6.103516E-05z" /></clipPath><clipPath id="3"><path d="M0 540L719.9999 540L719.9999 540L719.9999 0L719.9999 0L0 0z" /></clipPath><clipPath id="4"><path d="M36.87503 150L683.1249 150L683.1249 150L683.1249 144.25L683.1249 144.25L36.87503 144.25z" /></clipPath><linearGradient transform="matrix(1 0 0 1 0 0)" id="680" x1="359.9488" y1="398.6245" x2="359.9488398.6245" y2="359.948811.49908"><stop stop-color="#127B18" offset="0%" /><stop stop-color="#E3EED8" offset="100%" /></linearGradient><clipPath id="5"><path d="M0 540L719.9999 540L719.9999 540L719.9999 0L719.9999 0L0 0z" /></clipPath><clipPath id="6"><path d="M300 246L330.5 246L330.5 246L330.5 210.7501L330.5 210.7501L300 210.7501z" /></clipPath><clipPath id="7"><path d="M503.5 288L527.9999 288L527.9999 288L527.9999 258.0001L527.9999 258.0001L503.5 258.0001z" /></clipPath></defs><g transform="matrix(1.333333 0 0 1.333333 0 0)"><g><g clip-path="url(#1)"><g clip-path="url(#2)"><g transform="matrix(0.9 0 0 0.9 0 0)"><g transform="matrix(1 0 0 1 0 0)"><image x="0" y="0" xlink:href="img_01.png" width="800" height="600" /></g></g></g><g clip-path="url(#3)"><g transform="matrix(0.3272727 0 0 0.3272728 31.41818 139.7455)"><g transform="matrix(1 0 0 1 0 0)"><image x="0" y="0" xlink:href="img_03.png" width="2008" height="51" /></g></g></g><g clip-path="url(#4)"><g><path transform="matrix(1 0 0 -1 0 540)" d="M0 390L720 384L720 384L720 395L720 395L0 402" stroke="none" fill="url(#680)" /><path transform="matrix(1 0 0 -1 0 540)" d="M0 391.3275L720 384.9225L720 384.9225L720 0L720 0L0 0" stroke="none" fill="#127B18" fill-rule="evenodd" /><path transform="matrix(1 0 0 -1 0 540)" d="M0 400.8275L720 394.4224L720 394.4224L720 540L720 540L0 540" stroke="none" fill="#E3EED8" fill-rule="evenodd" /></g></g><g clip-path="url(#5)"><g transform="matrix(0.3272727 0 0 0.3272727 57.92727 154.4728)"><g transform="matrix(1 0 0 1 0 0)"><image x="0" y="0" xlink:href="img_218.png" width="1083" height="160" /></g></g><g transform="matrix(0.3272727 0 0 0.3272727 57.92727 194.4)"><g transform="matrix(1 0 0 1 0 0)"><image x="0" y="0" xlink:href="img_219.png" width="713" height="172" /></g></g><g transform="matrix(0.3272727 0 0 0.3272727 57.92727 240.5455)"><g transform="matrix(1 0 0 1 0 0)"><image x="0" y="0" xlink:href="img_220.png" width="1614" height="190" /></g></g><g transform="matrix(0.3272728 0 0 0.3272727 57.92727 286.3636)"><g transform="matrix(1 0 0 1 0 0)"><image x="0" y="0" xlink:href="img_221.png" width="1746" height="178" /></g></g><g transform="matrix(0.3272727 0 0 0.3272727 57.92727 332.5091)"><g transform="matrix(1 0 0 1 0 0)"><image x="0" y="0" xlink:href="img_222.png" width="637" height="172" /></g></g></g><g clip-path="url(#6)"></g><g clip-path="url(#7)"></g></g></g></g></svg>