<svg xmlns="http://www.w3.org/2000/svg" xmlns:xlink="http://www.w3.org/1999/xlink" id="body_17" preserveAspectRatio="xMinYMin meet" viewBox="0 0 960 720"><defs><clipPath id="1"><path d="M0 540L0 0L0 0L720 0L720 0L720 540L720 540L0 540z" /></clipPath><clipPath id="2"><path d="M0 539.9999L719.9999 539.9999L719.9999 539.9999L719.9999 6.103516E-05L719.9999 6.103516E-05L0 6.103516E-05z" /></clipPath><clipPath id="3"><path d="M0 540L719.9999 540L719.9999 540L719.9999 0L719.9999 0L0 0z" /></clipPath><clipPath id="4"><path d="M36.87503 150L683.1249 150L683.1249 150L683.1249 144.25L683.1249 144.25L36.87503 144.25z" /></clipPath><linearGradient transform="matrix(1 0 0 1 0 0)" id="680" x1="359.9488" y1="398.6245" x2="359.9488398.6245" y2="359.948811.49908"><stop stop-color="#127B18" offset="0%" /><stop stop-color="#E3EED8" offset="100%" /></linearGradient><clipPath id="5"><path d="M0 540L719.9999 540L719.9999 540L719.9999 0L719.9999 0L0 0z" /></clipPath></defs><g transform="matrix(1.333333 0 0 1.333333 0 0)"><g><g clip-path="url(#1)"><g clip-path="url(#2)"><g transform="matrix(0.9 0 0 0.9 0 0)"><g transform="matrix(1 0 0 1 0 0)"><image x="0" y="0" xlink:href="img_01.png" width="800" height="600" /></g></g></g><g clip-path="url(#3)"><g transform="matrix(0.3272727 0 0 0.3272728 31.41818 139.7455)"><g transform="matrix(1 0 0 1 0 0)"><image x="0" y="0" xlink:href="img_03.png" width="2008" height="51" /></g></g></g><g clip-path="url(#4)"><g><path transform="matrix(1 0 0 -1 0 540)" d="M0 390L720 384L720 384L720 395L720 395L0 402" stroke="none" fill="url(#680)" /><path transform="matrix(1 0 0 -1 0 540)" d="M0 391.3275L720 384.9225L720 384.9225L720 0L720 0L0 0" stroke="none" fill="#127B18" fill-rule="evenodd" /><path transform="matrix(1 0 0 -1 0 540)" d="M0 400.8275L720 394.4224L720 394.4224L720 540L720 540L0 540" stroke="none" fill="#E3EED8" fill-rule="evenodd" /></g></g><g clip-path="url(#5)"><g transform="matrix(0.3272728 0 0 0.3272727 57.92727 156.4364)"><g transform="matrix(1 0 0 1 0 0)"><image x="0" y="0" xlink:href="img_170.png" width="1336" height="150" /></g></g><g transform="matrix(0.3272727 0 0 0.3272727 85.0909 194.4)"><g transform="matrix(1 0 0 1 0 0)"><image x="0" y="0" xlink:href="img_171.png" width="810" height="151" /></g></g><g transform="matrix(0.3272727 0 0 0.3272727 57.92727 278.5091)"><g transform="matrix(1 0 0 1 0 0)"><image x="0" y="0" xlink:href="img_172.png" width="1727" height="178" /></g></g><g transform="matrix(0.3272727 0 0 0.3272727 92.94545 324.3272)"><g transform="matrix(1 0 0 1 0 0)"><image x="0" y="0" xlink:href="img_173.png" width="29" height="151" /></g></g><g transform="matrix(0.3272727 0 0 0.3272727 85.0909 363.6)"><g transform="matrix(1 0 0 1 0 0)"><image x="0" y="0" xlink:href="img_174.png" width="1434" height="150" /></g></g><g transform="matrix(0.3272727 0 0 0.3272727 85.0909 401.5636)"><g transform="matrix(1 0 0 1 0 0)"><image x="0" y="0" xlink:href="img_175.png" width="981" height="150" /></g></g><path transform="matrix(1 0 0 -1 0 540)" d="M144 372L132 336" stroke="#FF2600" stroke-width="4.499999" fill="none" /><path transform="matrix(1 0 0 -1 0 540)" d="M168 372L156 336" stroke="#FF2600" stroke-width="4.499999" fill="none" /><path transform="matrix(1 0 0 -1 0 540)" d="M216 372L204 336" stroke="#FF2600" stroke-width="4.499999" fill="none" /><path transform="matrix(1 0 0 -1 0 540)" d="M305.9999 372L295.375 379.8125L295.375 379.8125L284.75 387.4375L284.75 387.4375L274.125 394.5L274.125 394.5L263.5625 400.875L263.5625 400.875L253.0625 406.25L253.0625 406.25L242.6875 410.375L242.6875 410.375L237.5 411.9375L237.5 411.9375L232.375 413.0625L232.375 413.0625L227.25 413.75L227.25 413.75L222.1875 414L222.1875 414L217 413.625L217 413.625L211.625 412.5L211.625 412.5L206.0625 410.75L206.0625 410.75L200.4375 408.4375L200.4375 408.4375L194.75 405.6875L194.75 405.6875L189 402.5625L189 402.5625L177.875 395.625L177.875 395.625L167.375 388.375L167.375 388.375L162.5 384.8125L162.5 384.8125L157.9375 381.5L157.9375 381.5L153.75 378.5L153.75 378.5L150 375.8125L150 375.8125L146.75 373.625L146.75 373.625L146.5828 373.5262" stroke="#FF7C00" stroke-width="2.999999" fill="none" /><path transform="matrix(1 0 0 -1 0 540)" d="M149.1655 375.0523L154.0376 372.7043L154.0376 372.7043L144 372L144 372L149.459 380.4527z" stroke="none" fill="#FF7C00" fill-rule="evenodd" /><path transform="matrix(1 0 0 -1 0 540)" d="M329.9999 372L319.375 379.8125L319.375 379.8125L308.75 387.4375L308.75 387.4375L298.125 394.5L298.125 394.5L287.5625 400.875L287.5625 400.875L277.0625 406.25L277.0625 406.25L266.6874 410.375L266.6874 410.375L261.5 411.9375L261.5 411.9375L256.375 413.0625L256.375 413.0625L251.25 413.75L251.25 413.75L246.1875 414L246.1875 414L241 413.625L241 413.625L235.625 412.5L235.625 412.5L230.0625 410.75L230.0625 410.75L224.4375 408.4375L224.4375 408.4375L218.75 405.6875L218.75 405.6875L213 402.5625L213 402.5625L201.875 395.625L201.875 395.625L191.375 388.375L191.375 388.375L186.5 384.8125L186.5 384.8125L181.9375 381.5L181.9375 381.5L177.75 378.5L177.75 378.5L174 375.8125L174 375.8125L170.75 373.625L170.75 373.625L170.5828 373.5262" stroke="#FF7C00" stroke-width="2.999999" fill="none" /><path transform="matrix(1 0 0 -1 0 540)" d="M173.1655 375.0523L178.0376 372.7043L178.0376 372.7043L168 372L168 372L173.459 380.4527z" stroke="none" fill="#FF7C00" fill-rule="evenodd" /><path transform="matrix(1 0 0 -1 0 540)" d="M360 372L350.5625 379.8125L350.5625 379.8125L341.0625 387.4375L341.0625 387.4375L331.6875 394.5L331.6875 394.5L322.3125 400.875L322.3125 400.875L312.9374 406.25L312.9374 406.25L303.6875 410.375L303.6875 410.375L299.125 411.9375L299.125 411.9375L294.5625 413.0625L294.5625 413.0625L290 413.75L290 413.75L285.5 414L285.5 414L280.875 413.625L280.875 413.625L276.125 412.5L276.125 412.5L271.1875 410.75L271.1875 410.75L266.125 408.4375L266.125 408.4375L261.0625 405.6875L261.0625 405.6875L256 402.5625L256 402.5625L246.0625 395.625L246.0625 395.625L236.75 388.375L236.75 388.375L228.375 381.5L228.375 381.5L224.625 378.5L224.625 378.5L221.3125 375.8125L221.3125 375.8125L218.4373 373.7491" stroke="#FF7C00" stroke-width="2.999999" fill="none" /><path transform="matrix(1 0 0 -1 0 540)" d="M220.8746 375.4983L225.9356 373.5914L225.9356 373.5914L216 372L216 372L220.6882 380.9034z" stroke="none" fill="#FF7C00" fill-rule="evenodd" /><path transform="matrix(1 0 0 -1 0 540)" d="M102 357C 102 368.598 107.3726 378 114 378C 120.6274 378 126 368.598 126 357C 126 345.402 120.6274 336 114 336C 107.3726 336 102 345.402 102 357z" stroke="#00D100" stroke-width="4.499999" fill="none" /><path transform="matrix(1 0 0 -1 0 540)" d="M174 357C 174 368.598 179.3726 378 186 378C 192.6274 378 198 368.598 198 357C 198 345.402 192.6274 336 186 336C 179.3726 336 174 345.402 174 357z" stroke="#00D100" stroke-width="4.499999" fill="none" /><path transform="matrix(1 0 0 -1 0 540)" d="M222 357C 222 368.598 227.3726 378 234 378C 240.6274 378 246 368.598 246 357C 246 345.402 240.6274 336 234 336C 227.3726 336 222 345.402 222 357z" stroke="#00D100" stroke-width="4.499999" fill="none" /></g></g></g></g></svg>