<svg xmlns="http://www.w3.org/2000/svg" xmlns:xlink="http://www.w3.org/1999/xlink" id="body_14" preserveAspectRatio="xMinYMin meet" viewBox="0 0 960 720"><defs><clipPath id="1"><path d="M0 540L0 0L0 0L720 0L720 0L720 540L720 540L0 540z" /></clipPath><clipPath id="2"><path d="M0 539.9999L719.9999 539.9999L719.9999 539.9999L719.9999 6.103516E-05L719.9999 6.103516E-05L0 6.103516E-05z" /></clipPath><clipPath id="3"><path d="M0 540L719.9999 540L719.9999 540L719.9999 0L719.9999 0L0 0z" /></clipPath><clipPath id="4"><path d="M36.87503 150L683.1249 150L683.1249 150L683.1249 144.25L683.1249 144.25L36.87503 144.25z" /></clipPath><linearGradient transform="matrix(1 0 0 1 0 0)" id="680" x1="359.9488" y1="398.6245" x2="359.9488398.6245" y2="359.948811.49908"><stop stop-color="#127B18" offset="0%" /><stop stop-color="#E3EED8" offset="100%" /></linearGradient><clipPath id="5"><path d="M0 540L719.9999 540L719.9999 540L719.9999 0L719.9999 0L0 0z" /></clipPath></defs><g transform="matrix(1.333333 0 0 1.333333 0 0)"><g><g clip-path="url(#1)"><g clip-path="url(#2)"><g transform="matrix(0.9 0 0 0.9 0 0)"><g transform="matrix(1 0 0 1 0 0)"><image x="0" y="0" xlink:href="img_01.png" width="800" height="600" /></g></g></g><g clip-path="url(#3)"><g transform="matrix(0.3272727 0 0 0.3272728 31.41818 139.7455)"><g transform="matrix(1 0 0 1 0 0)"><image x="0" y="0" xlink:href="img_03.png" width="2008" height="51" /></g></g></g><g clip-path="url(#4)"><g><path transform="matrix(1 0 0 -1 0 540)" d="M0 390L720 384L720 384L720 395L720 395L0 402" stroke="none" fill="url(#680)" /><path transform="matrix(1 0 0 -1 0 540)" d="M0 391.3275L720 384.9225L720 384.9225L720 0L720 0L0 0" stroke="none" fill="#127B18" fill-rule="evenodd" /><path transform="matrix(1 0 0 -1 0 540)" d="M0 400.8275L720 394.4224L720 394.4224L720 540L720 540L0 540" stroke="none" fill="#E3EED8" fill-rule="evenodd" /></g></g><g clip-path="url(#5)"><g transform="matrix(0.3272727 0 0 0.3272727 57.92727 156.4364)"><g transform="matrix(1 0 0 1 0 0)"><image x="0" y="0" xlink:href="img_132.png" width="930" height="157" /></g></g><g transform="matrix(0.3272727 0 0 0.3272727 57.92727 156.4364)"><g transform="matrix(1 0 0 1 0 0)"><image x="0" y="0" xlink:href="img_133.png" width="930" height="157" /></g></g><g transform="matrix(0.3272727 0 0 0.3272727 57.92727 156.4364)"><g transform="matrix(1 0 0 1 0 0)"><image x="0" y="0" xlink:href="img_134.png" width="930" height="157" /></g></g><g transform="matrix(0.3272727 0 0 0.3272727 57.92727 194.4)"><g transform="matrix(1 0 0 1 0 0)"><image x="0" y="0" xlink:href="img_135.png" width="1162" height="178" /></g></g><g transform="matrix(0.3272727 0 0 0.3272727 57.92727 194.4)"><g transform="matrix(1 0 0 1 0 0)"><image x="0" y="0" xlink:href="img_136.png" width="1162" height="178" /></g></g><g transform="matrix(0.3272727 0 0 0.3272727 57.92727 194.4)"><g transform="matrix(1 0 0 1 0 0)"><image x="0" y="0" xlink:href="img_137.png" width="1162" height="178" /></g></g><g transform="matrix(0.3272727 0 0 0.3272727 57.92727 194.4)"><g transform="matrix(1 0 0 1 0 0)"><image x="0" y="0" xlink:href="img_138.png" width="1162" height="178" /></g></g><path transform="matrix(1 0 0 -1 0 540)" d="M196 144.875C 192 157.125 190.875 169.5 192.625 182.25C 191.75 189.75 193.75 199.75 194 206.75C 194.125 208.875 194 212.125 196 212.75C 201.625 214.625 198 213.625 207.125 214.75C 211.5 216 216.875 213.875 221.375 214.75C 235.25 214.375 245.625 214.75 262.875 212.75C 264.625 207.5 261.5 205.5 262.5 198.5C 263 195.75 266.875 182.875 266.875 180.375C 266.875 166.75 267.125 155.5 262.875 142.875C 262.625 142 244.75 146.125 243.625 145.875C 230.25 143.125 226.875 145 213.25 143.875C 208.375 145.5 203.125 142.75 201 144.875" stroke="none" fill="#008F00" fill-rule="evenodd" fill-opacity="0.5019608" /><path transform="matrix(1 0 0 -1 0 540)" d="M95.99999 180C 95.99999 199.8822 155.0984 216 228 216C 300.9015 216 359.9999 199.8822 359.9999 180C 359.9999 160.1178 300.9015 144 228 144C 155.0984 144 95.99999 160.1178 95.99999 180z" stroke="#0433FF" stroke-width="2.999999" fill="none" /><path transform="matrix(1 0 0 -1 0 540)" d="M192 180C 192 236.3331 208.1177 282 228 282C 247.8822 282 264 236.3331 264 180C 264 123.667 247.8822 78.00006 228 78.00006C 208.1177 78.00006 192 123.667 192 180z" stroke="#FF2600" stroke-width="2.999999" fill="none" /><path transform="matrix(1 0 0 -1 0 540)" d="M159.1507 198C 161.2603 198 162.9014 197.6714 164.074 197.0142C 165.2466 196.357 166.1689 195.3477 166.8411 193.9863C 167.5132 192.6249 167.8492 191.099 167.8492 189.4086C 167.8492 187.6113 167.4639 185.8945 166.6931 184.2581C 165.9224 182.6218 164.5209 180.8237 162.4885 178.8637C 161.2809 177.7227 160.4734 176.9241 160.0659 176.4678C 159.6584 176.0114 159.1796 175.4141 158.6297 174.6758C 161.7531 174.6758 164.8766 174.6758 168 174.6758C 168 172.4505 168 170.2253 168 168C 162 168 156 168 150 168C 150.206 170.4274 150.8319 172.7107 151.8776 174.8497C 152.9233 176.9887 154.8844 179.5148 157.761 182.4282C 159.5185 184.2135 160.6443 185.5693 161.1383 186.4957C 161.6324 187.422 161.8794 188.3013 161.8794 189.1337C 161.8794 190.033 161.636 190.8014 161.1494 191.4391C 160.6628 192.0768 160.0507 192.3956 159.3133 192.3956C 158.5463 192.3956 157.9195 192.0652 157.4328 191.4043C 156.9462 190.7435 156.6193 189.5766 156.4522 187.9038C 154.4522 188.1262 152.4522 188.3485 150.4522 188.5709C 150.6878 190.8812 151.1196 192.6844 151.7475 193.9805C 152.3755 195.2767 153.2611 196.2706 154.4041 196.9624C 155.5472 197.6541 157.1294 198 159.1507 198z" stroke="none" fill="#000000" fill-rule="winding" /><path transform="matrix(1 0 0 -1 0 540)" d="M159.1508 198C 161.2604 198 162.9015 197.6714 164.074 197.0142C 165.2466 196.357 166.169 195.3477 166.8411 193.9863C 167.5132 192.6249 167.8492 191.099 167.8492 189.4086C 167.8492 187.6113 167.4639 185.8945 166.6931 184.2581C 165.9224 182.6218 164.5209 180.8237 162.4885 178.8637C 161.2809 177.7227 160.4734 176.9241 160.0659 176.4678C 159.6584 176.0114 159.1796 175.4141 158.6297 174.6758C 161.7531 174.6758 164.8766 174.6758 168 174.6758C 168 172.4505 168 170.2253 168 168C 162 168 156 168 150 168C 150.206 170.4274 150.8319 172.7107 151.8776 174.8497C 152.9233 176.9887 154.8844 179.5148 157.761 182.4282C 159.5185 184.2135 160.6443 185.5693 161.1384 186.4957C 161.6324 187.422 161.8794 188.3013 161.8794 189.1337C 161.8794 190.033 161.6361 190.8015 161.1494 191.4391C 160.6628 192.0768 160.0507 192.3956 159.3133 192.3956C 158.5463 192.3956 157.9195 192.0652 157.4329 191.4043C 156.9462 190.7435 156.6193 189.5767 156.4523 187.9039C 154.4523 188.1262 152.4523 188.3485 150.4523 188.5709C 150.6878 190.8812 151.1196 192.6844 151.7476 193.9805C 152.3755 195.2767 153.2611 196.2706 154.4041 196.9624C 155.5472 197.6541 157.1294 198 159.1508 198z" stroke="#000000" stroke-width="1" fill="none" /><path transform="matrix(1 0 0 -1 0 540)" d="M230.812 264C 233.6524 264 235.706 263.2945 236.9728 261.8836C 238.2397 260.4727 238.8731 258.6991 238.8731 256.5627C 238.8731 255.3102 238.6166 254.1762 238.1038 253.1608C 237.5909 252.1453 236.8166 251.2552 235.7807 250.4905C 236.6227 250.2134 237.2665 249.8902 237.7119 249.5207C 238.4349 248.9265 238.997 248.1444 239.3982 247.1744C 239.7994 246.2044 240 245.0464 240 243.7006C 240 242.011 239.668 240.3908 239.0042 238.8401C 238.3403 237.2895 237.3841 236.0951 236.1355 235.257C 234.8869 234.419 233.2469 234 231.2155 234C 229.2336 234 227.6704 234.3106 226.5259 234.9318C 225.3814 235.553 224.44 236.4618 223.7018 237.6581C 222.9635 238.8545 222.3962 240.3581 222 242.1689C 224.0203 242.527 226.0406 242.8851 228.0609 243.2432C 228.2985 241.6115 228.6671 240.4805 229.1666 239.8505C 229.6661 239.2204 230.3018 238.9054 231.0737 238.9054C 231.8853 238.9054 232.5606 239.3015 233.0998 240.0937C 233.639 240.886 233.9086 241.9421 233.9086 243.2622C 233.9086 244.6089 233.6494 245.6519 233.131 246.3911C 232.6126 247.1304 231.9092 247.5 231.0209 247.5C 230.5469 247.5 229.8953 247.3416 229.066 247.0249C 229.17 248.9459 229.2741 250.8669 229.3781 252.788C 229.711 252.7221 229.9705 252.6892 230.1567 252.6892C 230.94 252.6892 231.5936 253.024 232.1176 253.6938C 232.6415 254.3636 232.9035 255.1581 232.9035 256.0775C 232.9035 256.9571 232.7067 257.6596 232.3129 258.1849C 231.9192 258.7103 231.3778 258.9729 230.6887 258.9729C 229.9803 258.9729 229.4046 258.688 228.9615 258.1181C 228.5184 257.5482 228.2182 256.5494 228.0609 255.1216C 226.1523 255.5735 224.2436 256.0253 222.335 256.4772C 222.8099 258.9054 223.7229 260.7662 225.074 262.0597C 226.425 263.3532 228.3377 264 230.812 264z" stroke="none" fill="#000000" fill-rule="winding" /><path transform="matrix(1 0 0 -1 0 540)" d="M230.812 264C 233.6524 264 235.7061 263.2946 236.9729 261.8837C 238.2397 260.4727 238.8731 258.6991 238.8731 256.5627C 238.8731 255.3102 238.6167 254.1762 238.1038 253.1608C 237.591 252.1454 236.8166 251.2553 235.7808 250.4905C 236.6228 250.2135 237.2665 249.8902 237.7119 249.5207C 238.435 248.9265 238.9971 248.1444 239.3982 247.1744C 239.7994 246.2044 240 245.0464 240 243.7006C 240 242.011 239.6681 240.3908 239.0042 238.8402C 238.3403 237.2895 237.3841 236.0951 236.1355 235.2571C 234.887 234.419 233.247 234 231.2156 234C 229.2337 234 227.6704 234.3106 226.5259 234.9318C 225.3814 235.553 224.44 236.4618 223.7018 237.6582C 222.9635 238.8545 222.3963 240.3581 222 242.1689C 224.0203 242.527 226.0406 242.8851 228.0609 243.2432C 228.2985 241.6115 228.6671 240.4806 229.1666 239.8505C 229.6662 239.2204 230.3019 238.9054 231.0738 238.9054C 231.8853 238.9054 232.5607 239.3015 233.0999 240.0938C 233.639 240.886 233.9086 241.9422 233.9086 243.2623C 233.9086 244.609 233.6494 245.6519 233.131 246.3912C 232.6126 247.1304 231.9093 247.5 231.0209 247.5C 230.547 247.5 229.8953 247.3416 229.066 247.0249C 229.17 248.946 229.2741 250.867 229.3782 252.788C 229.711 252.7221 229.9705 252.6892 230.1567 252.6892C 230.94 252.6892 231.5937 253.0241 232.1176 253.6938C 232.6416 254.3636 232.9035 255.1582 232.9035 256.0775C 232.9035 256.9572 232.7067 257.6596 232.313 258.185C 231.9193 258.7103 231.3779 258.973 230.6888 258.973C 229.9803 258.973 229.4046 258.688 228.9615 258.1181C 228.5185 257.5482 228.2183 256.5494 228.0609 255.1216C 226.1523 255.5735 224.2437 256.0253 222.335 256.4772C 222.81 258.9054 223.7229 260.7663 225.074 262.0598C 226.425 263.3532 228.3377 264 230.812 264z" stroke="#000000" stroke-width="1" fill="none" /><path transform="matrix(1 0 0 -1 0 540)" d="M218.6924 132C 223.4521 132 228.2117 132 232.9714 132C 232.9714 129.8159 232.9714 127.6319 232.9714 125.4478C 229.748 125.4478 226.5246 125.4478 223.3011 125.4478C 223.1288 123.9746 222.9564 122.5014 222.784 121.0282C 223.453 121.4574 224.1146 121.7794 224.7688 121.994C 225.423 122.2086 226.07 122.3159 226.7097 122.3159C 228.874 122.3159 230.6301 121.4242 231.978 119.6406C 233.326 117.857 234 115.6109 234 112.9023C 234 110.9981 233.6529 109.1676 232.9589 107.4109C 232.2648 105.6542 231.2804 104.3132 230.0057 103.3879C 228.7311 102.4626 227.0993 102 225.1106 102C 223.6834 102 222.4603 102.1846 221.4413 102.5537C 220.4224 102.9229 219.5561 103.4734 218.8425 104.2053C 218.1289 104.9372 217.5506 105.7664 217.1075 106.693C 216.6644 107.6195 216.2952 108.7743 216 110.1574C 218.0269 110.4603 220.0538 110.7631 222.0806 111.0659C 222.2284 109.7331 222.5733 108.7199 223.1154 108.0265C 223.6574 107.333 224.3029 106.9863 225.052 106.9863C 225.8899 106.9863 226.5823 107.4189 227.1292 108.284C 227.6761 109.1492 227.9496 110.4401 227.9496 112.1567C 227.9496 113.9141 227.674 115.2018 227.123 116.02C 226.5721 116.8382 225.8388 117.2473 224.9234 117.2473C 224.3429 117.2473 223.782 117.0528 223.2406 116.6639C 222.8373 116.3823 222.3945 115.8728 221.9124 115.1353C 220.2038 115.4706 218.4951 115.8058 216.7865 116.1411C 217.4218 121.4274 218.0571 126.7137 218.6924 132z" stroke="none" fill="#000000" fill-rule="winding" /><path transform="matrix(1 0 0 -1 0 540)" d="M218.6924 132C 223.4521 132 228.2118 132 232.9714 132C 232.9714 129.8159 232.9714 127.6319 232.9714 125.4478C 229.748 125.4478 226.5246 125.4478 223.3011 125.4478C 223.1288 123.9746 222.9564 122.5014 222.784 121.0282C 223.453 121.4574 224.1147 121.7794 224.7689 121.994C 225.423 122.2086 226.07 122.3159 226.7097 122.3159C 228.874 122.3159 230.6301 121.4242 231.9781 119.6406C 233.326 117.857 234 115.6109 234 112.9023C 234 110.9981 233.653 109.1676 232.9589 107.4109C 232.2648 105.6542 231.2805 104.3132 230.0058 103.3879C 228.7311 102.4626 227.0994 102 225.1106 102C 223.6834 102 222.4603 102.1846 221.4414 102.5537C 220.4224 102.9229 219.5561 103.4734 218.8425 104.2053C 218.1289 104.9372 217.5506 105.7664 217.1075 106.693C 216.6644 107.6195 216.2953 108.7743 216 110.1574C 218.0269 110.4603 220.0538 110.7631 222.0807 111.0659C 222.2285 109.7331 222.5734 108.7199 223.1154 108.0265C 223.6574 107.333 224.3029 106.9863 225.052 106.9863C 225.8899 106.9863 226.5823 107.4189 227.1292 108.284C 227.6761 109.1492 227.9496 110.4401 227.9496 112.1567C 227.9496 113.9141 227.6741 115.2018 227.1231 116.02C 226.5721 116.8382 225.8389 117.2473 224.9234 117.2473C 224.343 117.2473 223.782 117.0528 223.2406 116.6639C 222.8373 116.3823 222.3945 115.8728 221.9124 115.1353C 220.2038 115.4706 218.4952 115.8058 216.7866 116.1411C 217.4218 121.4274 218.0571 126.7137 218.6924 132z" stroke="#000000" stroke-width="1" fill="none" /><path transform="matrix(1 0 0 -1 0 540)" d="M297.3899 192C 299.1286 192 300.5022 191.7335 301.5107 191.2006C 302.5192 190.6676 303.3564 189.8881 304.0222 188.8619C 304.688 187.8357 305.1947 186.5464 305.5423 184.9941C 303.5288 184.6672 301.5152 184.3403 299.5017 184.0135C 299.3431 185.125 299.0779 185.9096 298.7061 186.3674C 298.3342 186.8251 297.8757 187.054 297.3303 187.054C 296.349 187.054 295.5856 186.3957 295.0403 185.0789C 294.6437 184.1309 294.3511 182.103 294.1627 178.9953C 294.8873 179.9717 295.6317 180.694 296.396 181.1623C 297.1603 181.6307 298.0438 181.8648 299.0464 181.8648C 300.992 181.8648 302.6373 180.9405 303.9824 179.0919C 305.3274 177.2433 306 174.8997 306 172.061C 306 170.1467 305.6598 168.3974 304.9794 166.8129C 304.299 165.2284 303.3553 164.0302 302.1483 163.2181C 300.9413 162.406 299.4289 162 297.6111 162C 295.4256 162 293.6722 162.4947 292.351 163.4841C 291.0298 164.4736 289.9743 166.0534 289.1846 168.2236C 288.3948 170.3938 288 173.2664 288 176.8416C 288 182.0789 288.8297 185.9147 290.489 188.3488C 292.1484 190.7829 294.4487 192 297.3899 192zM297.3551 176.8783C 296.5098 176.8783 295.8011 176.4621 295.2293 175.6295C 294.6574 174.797 294.3715 173.6077 294.3715 172.0616C 294.3715 170.489 294.6699 169.2567 295.2667 168.3648C 295.8635 167.4729 296.5945 167.027 297.4595 167.027C 298.2553 167.027 298.9217 167.4301 299.4588 168.2363C 299.9958 169.0424 300.2644 170.2449 300.2644 171.8437C 300.2644 173.4822 299.9859 174.731 299.429 175.5899C 298.872 176.4489 298.1808 176.8783 297.3551 176.8783z" stroke="none" fill="#000000" fill-rule="winding" /><path transform="matrix(1 0 0 -1 0 540)" d="M297.3899 192C 299.1286 192 300.5022 191.7336 301.5107 191.2006C 302.5193 190.6677 303.3564 189.8881 304.0222 188.8619C 304.688 187.8357 305.1947 186.5464 305.5424 184.9941C 303.5288 184.6672 301.5153 184.3404 299.5017 184.0135C 299.3431 185.125 299.0779 185.9096 298.7061 186.3674C 298.3343 186.8252 297.8757 187.0541 297.3304 187.0541C 296.349 187.0541 295.5856 186.3957 295.0403 185.079C 294.6437 184.1309 294.3512 182.103 294.1627 178.9954C 294.8873 179.9717 295.6317 180.694 296.396 181.1624C 297.1603 181.6307 298.0438 181.8649 299.0464 181.8649C 300.992 181.8649 302.6373 180.9406 303.9824 179.092C 305.3275 177.2433 306 174.8997 306 172.061C 306 170.1467 305.6598 168.3974 304.9794 166.8129C 304.299 165.2285 303.3553 164.0302 302.1483 163.2181C 300.9413 162.406 299.4289 162 297.6111 162C 295.4256 162 293.6723 162.4947 292.351 163.4842C 291.0298 164.4736 289.9743 166.0534 289.1846 168.2236C 288.3949 170.3938 288 173.2665 288 176.8416C 288 182.079 288.8297 185.9147 290.4891 188.3488C 292.1484 190.7829 294.4487 192 297.3899 192zM297.3551 176.8784C 296.5098 176.8784 295.8012 176.4621 295.2293 175.6295C 294.6574 174.797 294.3715 173.6077 294.3715 172.0617C 294.3715 170.489 294.6699 169.2568 295.2667 168.3649C 295.8636 167.473 296.5945 167.027 297.4595 167.027C 298.2553 167.027 298.9217 167.4301 299.4588 168.2363C 299.9959 169.0425 300.2644 170.2449 300.2644 171.8438C 300.2644 173.4823 299.9859 174.731 299.429 175.59C 298.8721 176.4489 298.1808 176.8784 297.3551 176.8784z" stroke="#000000" stroke-width="1" fill="none" /><path transform="matrix(1 0 0 -1 0 540)" d="M226.4256 192C 228.0864 192 229.7472 192 231.408 192C 231.408 185.956 231.408 179.9121 231.408 173.8681C 232.272 173.8681 233.136 173.8681 234 173.8681C 234 171.7527 234 169.6373 234 167.522C 233.136 167.522 232.272 167.522 231.408 167.522C 231.408 165.6813 231.408 163.8406 231.408 162C 229.7472 162 228.0864 162 226.4256 162C 226.4256 163.8406 226.4256 165.6813 226.4256 167.522C 222.9504 167.522 219.4752 167.522 216 167.522C 216 169.7681 216 172.0141 216 174.2602C 219.4752 180.1735 222.9504 186.0867 226.4256 192zM226.4256 183.1794C 224.5896 180.0756 222.7536 176.9719 220.9176 173.8681C 222.7536 173.8681 224.5896 173.8681 226.4256 173.8681C 226.4256 176.9719 226.4256 180.0756 226.4256 183.1794z" stroke="none" fill="#000000" fill-rule="winding" /><path transform="matrix(1 0 0 -1 0 540)" d="M226.4256 192C 228.0864 192 229.7472 192 231.408 192C 231.408 185.956 231.408 179.9121 231.408 173.8681C 232.272 173.8681 233.136 173.8681 234 173.8681C 234 171.7527 234 169.6374 234 167.522C 233.136 167.522 232.272 167.522 231.408 167.522C 231.408 165.6813 231.408 163.8407 231.408 162C 229.7472 162 228.0864 162 226.4256 162C 226.4256 163.8407 226.4256 165.6813 226.4256 167.522C 222.9504 167.522 219.4752 167.522 216 167.522C 216 169.7681 216 172.0142 216 174.2603C 219.4752 180.1735 222.9504 186.0868 226.4256 192zM226.4256 183.1794C 224.5896 180.0756 222.7536 176.9719 220.9176 173.8681C 222.7536 173.8681 224.5896 173.8681 226.4256 173.8681C 226.4256 176.9719 226.4256 180.0756 226.4256 183.1794z" stroke="#000000" stroke-width="1" fill="none" /></g></g></g></g></svg>