<svg xmlns="http://www.w3.org/2000/svg" xmlns:xlink="http://www.w3.org/1999/xlink" id="body_2" preserveAspectRatio="xMinYMin meet" viewBox="0 0 960 720"><defs><clipPath id="1"><path d="M0 540L0 0L0 0L720 0L720 0L720 540L720 540L0 540z" /></clipPath><clipPath id="2"><path d="M0 539.9999L719.9999 539.9999L719.9999 539.9999L719.9999 6.103516E-05L719.9999 6.103516E-05L0 6.103516E-05z" /></clipPath><clipPath id="3"><path d="M0 540L719.9999 540L719.9999 540L719.9999 0L719.9999 0L0 0z" /></clipPath><clipPath id="4"><path d="M36.87503 150L683.1249 150L683.1249 150L683.1249 144.25L683.1249 144.25L36.87503 144.25z" /></clipPath><linearGradient transform="matrix(1 0 0 1 0 0)" id="680" x1="359.9488" y1="398.6245" x2="359.9488398.6245" y2="359.948811.49908"><stop stop-color="#127B18" offset="0%" /><stop stop-color="#E3EED8" offset="100%" /></linearGradient><clipPath id="5"><path d="M0 540L719.9999 540L719.9999 540L719.9999 0L719.9999 0L0 0z" /></clipPath></defs><g transform="matrix(1.333333 0 0 1.333333 0 0)"><g><g clip-path="url(#1)"><g clip-path="url(#2)"><g transform="matrix(0.9 0 0 0.9 0 0)"><g transform="matrix(1 0 0 1 0 0)"><image x="0" y="0" xlink:href="img_01.png" width="800" height="600" /></g></g></g><g clip-path="url(#3)"><g transform="matrix(0.3272727 0 0 0.3272728 31.41818 139.7455)"><g transform="matrix(1 0 0 1 0 0)"><image x="0" y="0" xlink:href="img_03.png" width="2008" height="51" /></g></g></g><g clip-path="url(#4)"><g><path transform="matrix(1 0 0 -1 0 540)" d="M0 390L720 384L720 384L720 395L720 395L0 402" stroke="none" fill="url(#680)" /><path transform="matrix(1 0 0 -1 0 540)" d="M0 391.3275L720 384.9225L720 384.9225L720 0L720 0L0 0" stroke="none" fill="#127B18" fill-rule="evenodd" /><path transform="matrix(1 0 0 -1 0 540)" d="M0 400.8275L720 394.4224L720 394.4224L720 540L720 540L0 540" stroke="none" fill="#E3EED8" fill-rule="evenodd" /></g></g><g clip-path="url(#5)"><g transform="matrix(0.3272727 0 0 0.3272727 57.92727 156.4364)"><g transform="matrix(1 0 0 1 0 0)"><image x="0" y="0" xlink:href="img_04.png" width="1486" height="150" /></g></g><g transform="matrix(0.3272727 0 0 0.3272727 57.92727 156.4364)"><g transform="matrix(1 0 0 1 0 0)"><image x="0" y="0" xlink:href="img_05.png" width="1486" height="150" /></g></g><g transform="matrix(0.3272727 0 0 0.3272727 57.92727 156.4364)"><g transform="matrix(1 0 0 1 0 0)"><image x="0" y="0" xlink:href="img_06.png" width="1486" height="150" /></g></g><g transform="matrix(0.3272727 0 0 0.3272727 85.0909 194.4)"><g transform="matrix(1 0 0 1 0 0)"><image x="0" y="0" xlink:href="img_07.png" width="1681" height="151" /></g></g><g transform="matrix(0.3272727 0 0 0.3272727 85.0909 194.4)"><g transform="matrix(1 0 0 1 0 0)"><image x="0" y="0" xlink:href="img_08.png" width="1681" height="151" /></g></g><g transform="matrix(0.3272726 0 0 0.3272727 94.90909 232.3636)"><g transform="matrix(1 0 0 1 0 0)"><image x="0" y="0" xlink:href="img_09.png" width="449" height="22" /></g></g><g transform="matrix(0.3272727 0 0 0.3272727 85.0909 194.4)"><g transform="matrix(1 0 0 1 0 0)"><image x="0" y="0" xlink:href="img_10.png" width="1681" height="151" /></g></g><g transform="matrix(0.3272727 0 0 0.3272727 85.0909 232.3636)"><g transform="matrix(1 0 0 1 0 0)"><image x="0" y="0" xlink:href="img_11.png" width="1614" height="151" /></g></g><g transform="matrix(0.3272727 0 0 0.3272727 85.0909 232.3636)"><g transform="matrix(1 0 0 1 0 0)"><image x="0" y="0" xlink:href="img_12.png" width="1614" height="151" /></g></g><g transform="matrix(0.3272726 0 0 0.3272727 266.0727 270.3273)"><g transform="matrix(1 0 0 1 0 0)"><image x="0" y="0" xlink:href="img_13.png" width="332" height="22" /></g></g><g transform="matrix(0.3272727 0 0 0.3272727 85.0909 232.3636)"><g transform="matrix(1 0 0 1 0 0)"><image x="0" y="0" xlink:href="img_14.png" width="1614" height="151" /></g></g><g transform="matrix(0.3272727 0 0 0.3272727 85.0909 232.3636)"><g transform="matrix(1 0 0 1 0 0)"><image x="0" y="0" xlink:href="img_15.png" width="1614" height="151" /></g></g><g transform="matrix(0.3272727 0 0 0.3272727 89.01818 271.6363)"><g transform="matrix(1 0 0 1 0 0)"><image x="0" y="0" xlink:href="img_16.png" width="1337" height="133" /></g></g><g transform="matrix(0.3272727 0 0 0.3272727 116.1818 305.6727)"><g transform="matrix(1 0 0 1 0 0)"><image x="0" y="0" xlink:href="img_17.png" width="979" height="118" /></g></g><g transform="matrix(0.3272727 0 0 0.3272727 116.1818 334.4727)"><g transform="matrix(1 0 0 1 0 0)"><image x="0" y="0" xlink:href="img_18.png" width="937" height="118" /></g></g><g transform="matrix(0.3272727 0 0 0.3272727 89.01818 363.5999)"><g transform="matrix(1 0 0 1 0 0)"><image x="0" y="0" xlink:href="img_19.png" width="626" height="133" /></g></g><path transform="matrix(1 0 0 -1 0 540)" d="M96.19999 304.4L237.6583 304.4L237.6583 304.4L237.6583 306.4L237.6583 306.4L96.19999 306.4z" stroke="none" fill="#FF2600" fill-rule="evenodd" /><path transform="matrix(1 0 0 -1 0 540)" d="M267.2 266.4L370.6583 266.4L370.6583 266.4L370.6583 268.4L370.6583 268.4L267.2 268.4z" stroke="none" fill="#FF2600" fill-rule="evenodd" /></g></g></g></g></svg>