<svg xmlns="http://www.w3.org/2000/svg" xmlns:xlink="http://www.w3.org/1999/xlink" id="body_5" preserveAspectRatio="xMinYMin meet" viewBox="0 0 960 720"><defs><clipPath id="1"><path d="M0 540L0 0L0 0L720 0L720 0L720 540L720 540L0 540z" /></clipPath><clipPath id="2"><path d="M0 539.9999L719.9999 539.9999L719.9999 539.9999L719.9999 6.103516E-05L719.9999 6.103516E-05L0 6.103516E-05z" /></clipPath><clipPath id="3"><path d="M0 540L719.9999 540L719.9999 540L719.9999 0L719.9999 0L0 0z" /></clipPath><clipPath id="4"><path d="M36.87503 60.25009L683.1249 60.25009L683.1249 60.25009L683.1249 54.50009L683.1249 54.50009L36.87503 54.50009z" /></clipPath><linearGradient transform="matrix(1 0 0 1 0 0)" id="701" x1="359.9488" y1="488.3744" x2="359.9488488.3744" y2="359.948811.49908"><stop stop-color="#117B17" offset="0%" /><stop stop-color="#E3EED7" offset="100%" /></linearGradient><clipPath id="5"><path d="M0 540L719.9999 540L719.9999 540L719.9999 0L719.9999 0L0 0z" /></clipPath><clipPath id="6"><path d="M43.19999 97.4751L58.13332 97.4751L58.13332 97.4751L58.13332 82.54178L58.13332 82.54178L43.19999 82.54178z" /></clipPath><clipPath id="7"><path d="M0 540L719.9999 540L719.9999 540L719.9999 0L719.9999 0L0 0z" /></clipPath><clipPath id="8"><path d="M79.19999 132.2351L91.99999 132.2351L91.99999 132.2351L91.99999 119.4351L91.99999 119.4351L79.19999 119.4351z" /></clipPath><clipPath id="9"><path d="M0 540L719.9999 540L719.9999 540L719.9999 0L719.9999 0L0 0z" /></clipPath><clipPath id="10"><path d="M79.19999 195.2351L91.99999 195.2351L91.99999 195.2351L91.99999 182.4351L91.99999 182.4351L79.19999 182.4351z" /></clipPath><clipPath id="11"><path d="M0 540L719.9999 540L719.9999 540L719.9999 0L719.9999 0L0 0z" /></clipPath><clipPath id="12"><path d="M79.19999 288.2351L91.99999 288.2351L91.99999 288.2351L91.99999 275.4351L91.99999 275.4351L79.19999 275.4351z" /></clipPath><clipPath id="13"><path d="M0 540L719.9999 540L719.9999 540L719.9999 0L719.9999 0L0 0z" /></clipPath><clipPath id="14"><path d="M79.19999 322.2351L91.99999 322.2351L91.99999 322.2351L91.99999 309.4351L91.99999 309.4351L79.19999 309.4351z" /></clipPath><clipPath id="15"><path d="M0 540L719.9999 540L719.9999 540L719.9999 0L719.9999 0L0 0z" /></clipPath><clipPath id="16"><path d="M43.19999 362.1951L58.13332 362.1951L58.13332 362.1951L58.13332 347.2618L58.13332 347.2618L43.19999 347.2618z" /></clipPath><clipPath id="17"><path d="M0 540L719.9999 540L719.9999 540L719.9999 0L719.9999 0L0 0z" /></clipPath><clipPath id="18"><path d="M79.19999 397.2351L91.99999 397.2351L91.99999 397.2351L91.99999 384.4351L91.99999 384.4351L79.19999 384.4351z" /></clipPath><clipPath id="19"><path d="M0 540L719.9999 540L719.9999 540L719.9999 0L719.9999 0L0 0z" /></clipPath><clipPath id="20"><path d="M79.19999 432.2351L91.99999 432.2351L91.99999 432.2351L91.99999 419.4351L91.99999 419.4351L79.19999 419.4351z" /></clipPath><clipPath id="21"><path d="M0 540L719.9999 540L719.9999 540L719.9999 0L719.9999 0L0 0z" /></clipPath></defs><g transform="matrix(1.333333 0 0 1.333333 0 0)"><g><g clip-path="url(#1)"><g clip-path="url(#2)"><g transform="matrix(0.918 0 0 0.9 -7.2 0)"><g transform="matrix(1 0 0 1 0 0)"><image x="0" y="0" xlink:href="img_01.png" width="800" height="600" /></g></g></g><g clip-path="url(#3)"><g transform="matrix(0.3272727 0 0 0.3272728 31.41818 50.07269)"><g transform="matrix(1 0 0 1 0 0)"><image x="0" y="0" xlink:href="img_05.png" width="2008" height="51" /></g></g></g><g clip-path="url(#4)"><g><path transform="matrix(1 0 0 -1 0 540)" d="M0 480L720 474L720 474L720 485L720 485L0 492" stroke="none" fill="url(#701)" /><path transform="matrix(1 0 0 -1 0 540)" d="M0 481.0774L720 474.6724L720 474.6724L720 0L720 0L0 0" stroke="none" fill="#117B17" fill-rule="evenodd" /><path transform="matrix(1 0 0 -1 0 540)" d="M0 490.5774L720 484.1723L720 484.1723L720 540L720 540L0 540" stroke="none" fill="#E3EED7" fill-rule="evenodd" /></g></g><g clip-path="url(#5)"></g><g clip-path="url(#6)"><g transform="matrix(0.9955553 0 0 0.9955553 43.19999 82.54178)"><g transform="matrix(1 0 0 1 0 0)"><image x="0" y="0" xlink:href="img_06.png" width="15" height="15" /></g></g></g><g clip-path="url(#7)"></g><g clip-path="url(#8)"><g transform="matrix(1.066667 0 0 1.066667 79.19999 119.4351)"><g transform="matrix(1 0 0 1 0 0)"><image x="0" y="0" xlink:href="img_08.png" width="12" height="12" /></g></g></g><g clip-path="url(#9)"></g><g clip-path="url(#10)"><g transform="matrix(1.066667 0 0 1.066667 79.19999 182.4351)"><g transform="matrix(1 0 0 1 0 0)"><image x="0" y="0" xlink:href="img_08.png" width="12" height="12" /></g></g></g><g clip-path="url(#11)"></g><g clip-path="url(#12)"><g transform="matrix(1.066667 0 0 1.066667 79.19999 275.4351)"><g transform="matrix(1 0 0 1 0 0)"><image x="0" y="0" xlink:href="img_08.png" width="12" height="12" /></g></g></g><g clip-path="url(#13)"></g><g clip-path="url(#14)"><g transform="matrix(1.066667 0 0 1.066667 79.19999 309.4351)"><g transform="matrix(1 0 0 1 0 0)"><image x="0" y="0" xlink:href="img_08.png" width="12" height="12" /></g></g></g><g clip-path="url(#15)"></g><g clip-path="url(#16)"><g transform="matrix(0.9955553 0 0 0.9955553 43.19999 347.2618)"><g transform="matrix(1 0 0 1 0 0)"><image x="0" y="0" xlink:href="img_06.png" width="15" height="15" /></g></g></g><g clip-path="url(#17)"></g><g clip-path="url(#18)"><g transform="matrix(1.066667 0 0 1.066667 79.19999 384.4351)"><g transform="matrix(1 0 0 1 0 0)"><image x="0" y="0" xlink:href="img_08.png" width="12" height="12" /></g></g></g><g clip-path="url(#19)"></g><g clip-path="url(#20)"><g transform="matrix(1.066667 0 0 1.066667 79.19999 419.4351)"><g transform="matrix(1 0 0 1 0 0)"><image x="0" y="0" xlink:href="img_08.png" width="12" height="12" /></g></g></g><g clip-path="url(#21)"></g></g></g></g></svg>